<svg width="143" height="46" viewBox="0 0 143 46" fill="none" xmlns="http://www.w3.org/2000/svg">
<path d="M1.48657 28.7797C1.42299 28.511 1.1536 28.3447 0.884878 28.4083C0.616155 28.4718 0.449853 28.7412 0.513433 29.0099L1.48657 28.7797ZM18.8627 43.7929L18.7669 44.2837L18.8627 43.7929ZM58.9399 37.0891L59.1494 37.5431L58.9399 37.0891ZM76.6702 23.9814L77.1281 24.1824L76.6702 23.9814ZM67.997 20.4766L67.753 20.0402L67.997 20.4766ZM60.4218 31.9393L59.9334 31.8322L60.4218 31.9393ZM72.2312 45.1665L72.2053 45.6658L72.2312 45.1665ZM94.5 39L94.7662 39.4232L94.5 39ZM142.999 1.52623C143.014 1.25046 142.802 1.01517 142.526 1.00069L138.032 0.764652C137.757 0.750167 137.521 0.961975 137.507 1.23774C137.492 1.5135 137.704 1.74879 137.98 1.76328L141.974 1.97309L141.765 5.96758C141.75 6.24334 141.962 6.47863 142.238 6.49312C142.513 6.5076 142.749 6.29579 142.763 6.02003L142.999 1.52623ZM1 28.8948L0.513433 29.0099C1.48945 33.1351 4.37882 36.6234 7.829 39.233C11.2815 41.8444 15.3469 43.6158 18.7669 44.2837L18.8627 43.7929L18.9586 43.3022C15.6966 42.6652 11.7706 40.9605 8.43224 38.4355C5.09155 35.9087 2.39055 32.6004 1.48657 28.7797L1 28.8948ZM18.8627 43.7929L18.7669 44.2837C33.2273 47.1075 46.1246 43.5526 59.1494 37.5431L58.9399 37.0891L58.7304 36.6351C45.796 42.6029 33.1257 46.0688 18.9586 43.3022L18.8627 43.7929ZM58.9399 37.0891L59.1494 37.5431C62.1944 36.1382 65.8847 34.6422 69.1874 32.5997C72.4998 30.5513 75.4891 27.9162 77.1281 24.1824L76.6702 23.9814L76.2124 23.7804C74.6873 27.2548 71.886 29.7551 68.6615 31.7492C65.4274 33.7492 61.8345 35.2029 58.7304 36.6351L58.9399 37.0891ZM76.6702 23.9814L77.1281 24.1824C77.9118 22.397 78.0351 21.0108 77.5308 20.0054C77.0175 18.9819 75.9516 18.5377 74.8168 18.4068C73.6732 18.2749 72.3444 18.4427 71.1003 18.7554C69.8526 19.069 68.6506 19.5383 67.753 20.0402L67.997 20.4766L68.241 20.913C69.0505 20.4604 70.1681 20.0208 71.344 19.7252C72.5236 19.4288 73.7225 19.2872 74.7022 19.4003C75.6908 19.5143 76.3439 19.8693 76.6369 20.4537C76.9391 21.0561 76.956 22.0863 76.2124 23.7804L76.6702 23.9814ZM67.997 20.4766L67.753 20.0402C63.6746 22.3203 60.9631 27.1363 59.9334 31.8322L60.4218 31.9393L60.9102 32.0464C61.9034 27.5168 64.498 23.0056 68.241 20.913L67.997 20.4766ZM60.4218 31.9393L59.9334 31.8322C58.9815 36.1736 60.314 39.571 62.7821 41.9112C65.2288 44.2312 68.7601 45.4868 72.2053 45.6658L72.2312 45.1665L72.2572 44.6671C68.9958 44.4977 65.7085 43.308 63.4702 41.1856C61.2532 39.0835 60.0343 36.0415 60.9102 32.0464L60.4218 31.9393ZM72.2312 45.1665L72.2053 45.6658C79.4969 46.0446 88.8047 43.1734 94.7662 39.4232L94.5 39L94.2338 38.5768C88.4175 42.2355 79.3111 45.0336 72.2572 44.6671L72.2312 45.1665ZM94.5 39L94.7662 39.4232C107.547 31.3833 131.469 12.1027 142.835 1.87161L142.5 1.5L142.165 1.12839C130.819 11.3424 106.945 30.5805 94.2338 38.5768L94.5 39Z" fill="#149C88"/>
</svg>
