<svg width="44" height="24" viewBox="0 0 44 24" fill="none" xmlns="http://www.w3.org/2000/svg">
<path d="M2 10.5002C1.17157 10.5002 0.5 11.1718 0.5 12.0002C0.5 12.8287 1.17157 13.5002 2 13.5002L2 10.5002ZM43.0607 13.0609C43.6464 12.4751 43.6464 11.5254 43.0607 10.9396L33.5147 1.39364C32.9289 0.807853 31.9792 0.807853 31.3934 1.39364C30.8076 1.97943 30.8076 2.92917 31.3934 3.51496L39.8787 12.0002L31.3934 20.4855C30.8076 21.0713 30.8076 22.0211 31.3934 22.6068C31.9792 23.1926 32.9289 23.1926 33.5147 22.6068L43.0607 13.0609ZM2 12.0002L2 13.5002L42 13.5002L42 12.0002L42 10.5002L2 10.5002L2 12.0002Z" fill="#242A29"/>
</svg>
