<svg width="87" height="52" viewBox="0 0 87 52" fill="none" xmlns="http://www.w3.org/2000/svg">
<path d="M1.04906 21.5152C1.05742 21.2391 0.840445 21.0086 0.564429 21.0002C0.288413 20.9919 0.0578797 21.2089 0.049518 21.4849L1.04906 21.5152ZM13.8067 46.0008L13.6383 46.4716L13.6383 46.4716L13.8067 46.0008ZM41.9544 42.1195L42.2007 42.5546L41.9544 42.1195ZM53.72 30.423L54.2042 30.5476L54.2042 30.5476L53.72 30.423ZM47.2927 26.3868L47.0023 25.9798L47.0023 25.9798L47.2927 26.3868ZM42.6631 37.1526L42.1652 37.107L42.6631 37.1526ZM51.9872 50.9678L51.9055 51.461L51.9872 50.9678ZM67.462 46.4088L67.7794 46.7951L67.462 46.4088ZM82.3359 0.590168C82.1096 0.431982 81.7979 0.487235 81.6397 0.713579L79.0619 4.40207C78.9037 4.62841 78.959 4.94014 79.1853 5.09832C79.4116 5.25651 79.7234 5.20126 79.8816 4.97491L82.1729 1.69625L85.4516 3.98763C85.6779 4.14582 85.9897 4.09056 86.1478 3.86422C86.306 3.63787 86.2508 3.32615 86.0244 3.16796L82.3359 0.590168ZM0.549289 21.5L0.049518 21.4849C-0.203345 29.8318 1.9221 35.6339 4.76338 39.5789C7.60016 43.5176 11.1279 45.574 13.6383 46.4716L13.8067 46.0008L13.975 45.53C11.6283 44.6909 8.27743 42.7469 5.57483 38.9945C2.87675 35.2483 0.802067 29.6683 1.04906 21.5152L0.549289 21.5ZM13.8067 46.0008L13.6383 46.4716C24.2342 50.2601 33.2776 47.6051 42.2007 42.5546L41.9544 42.1195L41.7081 41.6843C32.9163 46.6605 24.1885 49.1817 13.975 45.53L13.8067 46.0008ZM41.9544 42.1195L42.2007 42.5546C46.3235 40.2211 52.3699 37.6768 54.2042 30.5476L53.72 30.423L53.2358 30.2984C51.5305 36.926 45.9778 39.2677 41.7081 41.6843L41.9544 42.1195ZM53.72 30.423L54.2042 30.5476C54.6447 28.8358 54.6239 27.5267 54.2223 26.5664C53.8096 25.5793 53.0268 25.0364 52.1342 24.8122C51.2607 24.5927 50.2795 24.6743 49.3859 24.9046C48.4893 25.1357 47.6347 25.5284 47.0023 25.9798L47.2927 26.3868L47.5832 26.7938C48.1044 26.4217 48.8437 26.0771 49.6355 25.873C50.4303 25.6681 51.2321 25.6166 51.8905 25.782C52.5299 25.9427 53.0281 26.3026 53.2998 26.9522C53.5826 27.6286 53.6496 28.6899 53.2358 30.2984L53.72 30.423ZM47.2927 26.3868L47.0023 25.9798C45.575 26.9986 44.4727 28.6674 43.6776 30.6114C42.8797 32.5622 42.3735 34.8319 42.1652 37.107L42.6631 37.1526L43.1611 37.1982C43.3621 35.003 43.8493 32.833 44.6032 30.99C45.3598 29.1403 46.3677 27.6614 47.5832 26.7938L47.2927 26.3868ZM42.6631 37.1526L42.1652 37.107C41.4013 45.4498 46.84 50.6215 51.9055 51.461L51.9872 50.9678L52.069 50.4745C47.5148 49.7197 42.4454 45.0134 43.1611 37.1982L42.6631 37.1526ZM51.9872 50.9678L51.9055 51.461C57.2174 52.3414 63.7379 50.115 67.7794 46.7951L67.462 46.4088L67.1447 46.0224C63.2827 49.1948 57.0455 51.2993 52.069 50.4745L51.9872 50.9678ZM67.462 46.4088L67.7794 46.7951C72.0956 43.2496 76.9286 38.1837 80.11 30.7872C83.2931 23.387 84.8068 13.691 82.5418 0.912736L82.0495 1L81.5572 1.08727C83.792 13.6958 82.2887 23.1911 79.1914 30.3921C76.0925 37.5968 71.3819 42.5418 67.1447 46.0224L67.462 46.4088Z" fill="#149C88"/>
</svg>
