<svg width="40" height="40" viewBox="0 0 40 40" fill="none" xmlns="http://www.w3.org/2000/svg">
<path d="M20.7667 37.9166C20.4834 37.9166 20.2001 37.9166 19.9167 37.8999C10.5834 37.4833 2.78341 29.9666 2.13341 20.7999C1.56674 12.9333 6.11674 5.58328 13.4501 2.49995C15.5334 1.63328 16.6334 2.29995 17.1001 2.78328C17.5667 3.24995 18.2167 4.33328 17.3501 6.31661C16.5834 8.08328 16.2001 9.96661 16.2167 11.8999C16.2501 19.2833 22.3834 25.5499 29.8667 25.8499C30.9501 25.8999 32.0167 25.8166 33.0501 25.6333C35.2501 25.2333 36.1667 26.1166 36.5167 26.6833C36.8667 27.2499 37.2667 28.4666 35.9334 30.2666C32.4001 35.0999 26.7834 37.9166 20.7667 37.9166ZM4.61674 20.6166C5.18341 28.5499 11.9501 35.0499 20.0167 35.3999C25.5001 35.6666 30.7001 33.1666 33.9001 28.7999C34.1501 28.4499 34.2667 28.1999 34.3167 28.0666C34.1667 28.0499 33.9001 28.0333 33.4834 28.1166C32.2667 28.3333 31.0001 28.4166 29.7501 28.3666C20.9501 28.0166 13.7501 20.6333 13.7001 11.9333C13.7001 9.63328 14.1501 7.41661 15.0667 5.33328C15.2334 4.96661 15.2667 4.71661 15.2834 4.58328C15.1334 4.58328 14.8667 4.61661 14.4334 4.79995C8.08341 7.46661 4.15008 13.8333 4.61674 20.6166Z" fill="white"/>
</svg>
