<svg width="25" height="25" viewBox="0 0 25 25" fill="none" xmlns="http://www.w3.org/2000/svg">
<path d="M18.1771 23.6979C17 23.6979 15.7605 23.4167 14.4792 22.875C13.2292 22.3437 11.9688 21.6146 10.7396 20.7292C9.52087 19.8333 8.34379 18.8333 7.22921 17.7396C6.12504 16.625 5.12504 15.4479 4.23962 14.2396C3.34379 12.9896 2.62504 11.7396 2.11462 10.5312C1.57296 9.23958 1.30212 7.98958 1.30212 6.8125C1.30212 6 1.44796 5.22917 1.72921 4.51042C2.02087 3.77083 2.48962 3.08333 3.12504 2.48958C3.92712 1.69792 4.84379 1.30208 5.82296 1.30208C6.22921 1.30208 6.64587 1.39583 7.00004 1.5625C7.40629 1.75 7.75004 2.03125 8.00004 2.40625L10.4167 5.8125C10.6355 6.11458 10.8021 6.40625 10.9167 6.69792C11.0521 7.01042 11.125 7.32292 11.125 7.625C11.125 8.02083 11.0105 8.40625 10.7917 8.77083C10.6355 9.05208 10.3959 9.35417 10.0938 9.65625L9.38546 10.3958C9.39587 10.4271 9.40629 10.4479 9.41671 10.4687C9.54171 10.6875 9.79171 11.0625 10.2709 11.625C10.7813 12.2083 11.2605 12.7396 11.7396 13.2292C12.3542 13.8333 12.8646 14.3125 13.3438 14.7083C13.9375 15.2083 14.323 15.4583 14.5521 15.5729L14.5313 15.625L15.2917 14.875C15.6146 14.5521 15.9271 14.3125 16.2292 14.1562C16.8021 13.8021 17.5313 13.7396 18.2605 14.0417C18.5313 14.1562 18.823 14.3125 19.1355 14.5312L22.5938 16.9896C22.9792 17.25 23.2605 17.5833 23.4271 17.9792C23.5834 18.375 23.6563 18.7396 23.6563 19.1042C23.6563 19.6042 23.5417 20.1042 23.323 20.5729C23.1042 21.0417 22.8334 21.4479 22.4896 21.8229C21.8959 22.4792 21.25 22.9479 20.5 23.25C19.7813 23.5417 19 23.6979 18.1771 23.6979ZM5.82296 2.86458C5.25004 2.86458 4.71879 3.11458 4.20837 3.61458C3.72921 4.0625 3.39587 4.55208 3.18754 5.08333C2.96879 5.625 2.86462 6.19792 2.86462 6.8125C2.86462 7.78125 3.09379 8.83333 3.55212 9.91667C4.02087 11.0208 4.67712 12.1667 5.51046 13.3125C6.34379 14.4583 7.29171 15.5729 8.33337 16.625C9.37504 17.6562 10.5 18.6146 11.6563 19.4583C12.7813 20.2812 13.9375 20.9479 15.0834 21.4271C16.8646 22.1875 18.5313 22.3646 19.9063 21.7917C20.4375 21.5729 20.9063 21.2396 21.3334 20.7604C21.573 20.5 21.7605 20.2187 21.9167 19.8854C22.0417 19.625 22.1042 19.3542 22.1042 19.0833C22.1042 18.9167 22.073 18.75 21.9896 18.5625C21.9584 18.5 21.8959 18.3854 21.698 18.25L18.2396 15.7917C18.0313 15.6458 17.8438 15.5417 17.6667 15.4687C17.4375 15.375 17.3438 15.2812 16.9896 15.5C16.7813 15.6042 16.5938 15.7604 16.3855 15.9687L15.5938 16.75C15.1875 17.1458 14.5625 17.2396 14.0834 17.0625L13.8021 16.9375C13.375 16.7083 12.875 16.3542 12.323 15.8854C11.823 15.4583 11.2813 14.9583 10.625 14.3125C10.1146 13.7917 9.60421 13.2396 9.07296 12.625C8.58337 12.0521 8.22921 11.5625 8.01046 11.1562L7.88546 10.8437C7.82296 10.6042 7.80212 10.4687 7.80212 10.3229C7.80212 9.94792 7.93754 9.61458 8.19796 9.35417L8.97921 8.54167C9.18754 8.33333 9.34379 8.13542 9.44796 7.95833C9.53129 7.82292 9.56254 7.70833 9.56254 7.60417C9.56254 7.52083 9.53129 7.39583 9.47921 7.27083C9.40629 7.10417 9.29171 6.91667 9.14587 6.71875L6.72921 3.30208C6.62504 3.15625 6.50004 3.05208 6.34379 2.97917C6.17712 2.90625 6.00004 2.86458 5.82296 2.86458ZM14.5313 15.6354L14.3646 16.3437L14.6459 15.6146C14.5938 15.6042 14.5521 15.6146 14.5313 15.6354Z" fill="#149C88"/>
</svg>
