<svg width="28" height="28" viewBox="0 0 28 28" fill="none" xmlns="http://www.w3.org/2000/svg">
<g clip-path="url(#clip0_2002_173)">
<path fill-rule="evenodd" clip-rule="evenodd" d="M1.6059 1.60603C-0.411743 3.64288 -0.411743 6.89994 -0.411743 13.4237V14.5766C-0.411743 21.0907 -0.411743 24.3478 1.6059 26.3943C3.64276 28.4119 6.89982 28.4119 13.4235 28.4119H14.5765C21.0906 28.4119 24.3477 28.4119 26.3941 26.3943C28.4118 24.3574 28.4118 21.1004 28.4118 14.5766V13.4237C28.4118 6.90955 28.4118 3.6525 26.3941 1.60603C24.3573 -0.411621 21.1003 -0.411621 14.5765 -0.411621H13.4235C6.90943 -0.411621 3.65237 -0.411621 1.6059 1.60603ZM4.44982 8.36034C4.60355 15.8545 8.35061 20.351 14.9224 20.351H15.3067V16.0658C17.7183 16.306 19.5438 18.0739 20.2739 20.351H23.6847C23.3349 19.0571 22.7147 17.852 21.8651 16.8152C21.0155 15.7786 19.9558 14.9337 18.7559 14.3364C19.8312 13.6816 20.7599 12.812 21.4839 11.7822C22.208 10.7523 22.7119 9.58416 22.9641 8.35073H19.8704C19.1979 10.7335 17.1994 12.8952 15.3067 13.097V8.36034H12.2033V16.6616C10.2818 16.1811 7.86061 13.856 7.75491 8.36034H4.44982Z" fill="#242A29"/>
</g>
<defs>
<clipPath id="clip0_2002_173">
<rect width="28" height="28" fill="white"/>
</clipPath>
</defs>
</svg>
