<svg width="28" height="28" viewBox="0 0 28 28" fill="none" xmlns="http://www.w3.org/2000/svg">
<path d="M20.9764 0.629395H7.02521C3.17094 0.629395 0.0354004 3.76494 0.0354004 7.61921V20.3825C0.0354004 24.2368 3.17094 27.3723 7.02521 27.3723H20.9764C24.8307 27.3723 27.9662 24.2368 27.9662 20.3825V7.61921C27.9662 3.76494 24.8307 0.629395 20.9764 0.629395ZM2.50119 7.61921C2.50119 5.12499 4.53099 3.09516 7.02521 3.09516H20.9764C23.4706 3.09516 25.5004 5.12499 25.5004 7.61921V20.3825C25.5004 22.8767 23.4706 24.9065 20.9764 24.9065H7.02521C4.53099 24.9065 2.50119 22.8767 2.50119 20.3825V7.61921Z" fill="#242A29"/>
<path d="M14.0009 20.501C17.585 20.501 20.5026 17.585 20.5026 13.9993C20.5026 10.4135 17.5866 7.49756 14.0009 7.49756C10.4151 7.49756 7.49915 10.4135 7.49915 13.9993C7.49915 17.585 10.4151 20.501 14.0009 20.501ZM14.0009 9.9649C16.2265 9.9649 18.0368 11.7752 18.0368 14.0008C18.0368 16.2265 16.2265 18.0368 14.0009 18.0368C11.7752 18.0368 9.96493 16.2265 9.96493 14.0008C9.96493 11.7752 11.7752 9.9649 14.0009 9.9649Z" fill="#242A29"/>
<path d="M21.1044 8.54802C22.0695 8.54802 22.8562 7.76297 22.8562 6.79624C22.8562 5.82952 22.0711 5.04443 21.1044 5.04443C20.1377 5.04443 19.3526 5.82952 19.3526 6.79624C19.3526 7.76297 20.1377 8.54802 21.1044 8.54802Z" fill="#242A29"/>
</svg>
