<svg width="26" height="26" viewBox="0 0 26 26" fill="none" xmlns="http://www.w3.org/2000/svg">
<path d="M0.862743 11.7663C0.921415 11.7348 0.980114 11.7048 1.03732 11.6765C2.0318 11.1817 3.03949 10.7184 4.0457 10.2552C4.09997 10.2552 4.19089 10.1874 4.24223 10.1653C4.31997 10.1291 4.39772 10.0944 4.47546 10.0582C4.62508 9.98887 4.77469 9.9211 4.92284 9.85177C5.22207 9.71468 5.5198 9.57762 5.81903 9.44053C6.41601 9.16635 7.01299 8.89218 7.60997 8.61643C8.80394 8.06807 9.9994 7.51811 11.1934 6.96976C12.3873 6.42141 13.5828 5.87148 14.7767 5.32313C15.9707 4.77478 17.1661 4.22486 18.3601 3.6765C19.554 3.12815 20.7495 2.57823 21.9435 2.02987C22.209 1.90697 22.4964 1.72418 22.781 1.6706C23.0201 1.62491 23.2533 1.53668 23.4938 1.48783C23.95 1.39486 24.4531 1.35704 24.8902 1.56031C25.0413 1.63122 25.1806 1.73047 25.2965 1.85495C25.851 2.44427 25.7732 3.41179 25.6559 4.24063C24.8389 10.0172 24.0219 15.7954 23.2034 21.5721C23.0919 22.3647 22.9394 23.2345 22.3571 23.7355C21.8642 24.1594 21.1631 24.2067 20.5544 24.027C19.9457 23.8458 19.4088 23.4661 18.8823 23.0926C16.6982 21.539 14.5127 19.9853 12.3287 18.4316C11.8094 18.0629 11.2315 17.5807 11.2374 16.911C11.2403 16.5077 11.4647 16.1484 11.6935 15.8285C13.5915 13.1687 16.33 11.3409 18.3674 8.80393C18.6549 8.44624 18.8808 7.8002 18.4862 7.59378C18.2515 7.47087 17.9816 7.63787 17.7675 7.79702C15.0745 9.80607 12.3829 11.8167 9.6899 13.8258C8.8113 14.4813 7.89016 15.1557 6.83113 15.3164C5.88359 15.4614 4.93018 15.1777 4.01344 14.8878C3.24484 14.6451 2.47768 14.3962 1.71349 14.1393C1.30719 14.0038 0.887683 13.8573 0.57379 13.55C0.259897 13.2427 0.0795067 12.7259 0.268722 12.3162C0.387532 12.0594 0.617822 11.8971 0.859843 11.7647L0.862743 11.7663Z" fill="#242A29"/>
</svg>
