<svg width="28" height="28" viewBox="0 0 28 28" fill="none" xmlns="http://www.w3.org/2000/svg">
<path d="M18.1206 20.1393C12.7109 20.1393 8.30971 15.767 8.30823 10.3946C8.30971 9.03272 9.42631 7.92529 10.7947 7.92529C10.9353 7.92529 11.0745 7.93706 11.2078 7.96059C11.501 8.00912 11.7794 8.10766 12.0356 8.2562C12.0727 8.27826 12.0978 8.31358 12.1038 8.35476L12.6754 11.9329C12.6828 11.9755 12.6695 12.0167 12.6413 12.0476C12.3259 12.3947 11.9231 12.6447 11.4744 12.7697L11.2582 12.83L11.3396 13.0374C12.0771 14.9022 13.5787 16.392 15.458 17.1273L15.6668 17.2097L15.7275 16.995C15.8534 16.5494 16.1051 16.1493 16.4546 15.8361C16.4798 15.8126 16.5139 15.8008 16.5479 15.8008C16.5553 15.8008 16.5627 15.8008 16.5716 15.8023L20.1746 16.37C20.2176 16.3773 20.2531 16.4008 20.2753 16.4376C20.4234 16.692 20.5226 16.97 20.573 17.2612C20.5967 17.3906 20.607 17.5274 20.607 17.67C20.607 19.0304 19.4919 20.1378 18.1206 20.1393Z" fill="#242A29"/>
<path d="M27.7137 12.8212C27.422 9.54749 25.9115 6.51055 23.4606 4.2707C20.9949 2.01762 17.7962 0.776367 14.4508 0.776367C7.10859 0.776367 1.13468 6.70908 1.13468 14.0007C1.13468 16.4479 1.8144 18.8319 3.10129 20.9085L0.231323 27.2177L9.42026 26.2456C11.0181 26.8956 12.7093 27.225 14.4494 27.225C14.907 27.225 15.3764 27.2015 15.8473 27.153C16.262 27.1089 16.6811 27.0442 17.0928 26.9618C23.2414 25.7279 27.73 20.3085 27.7656 14.0713V14.0007C27.7656 13.6036 27.7478 13.2065 27.7122 12.8227L27.7137 12.8212ZM9.7742 23.4763L4.6903 24.0146L6.20822 20.6747L5.90463 20.2702C5.88242 20.2408 5.86021 20.2114 5.83503 20.1776C4.51704 18.3701 3.821 16.2347 3.821 14.0022C3.821 8.18123 8.58948 3.44564 14.4508 3.44564C19.942 3.44564 24.5964 7.70033 25.0452 13.1315C25.0688 13.4227 25.0822 13.7154 25.0822 14.0037C25.0822 14.086 25.0807 14.1669 25.0792 14.2537C24.9667 19.1231 21.5414 23.2587 16.7492 24.3117C16.3834 24.3925 16.0087 24.4543 15.6356 24.494C15.2476 24.5381 14.8492 24.5602 14.4538 24.5602C13.0455 24.5602 11.6771 24.2896 10.3843 23.7543C10.2407 23.6969 10.1 23.6351 9.96819 23.5719L9.77568 23.4792L9.7742 23.4763Z" fill="#242A29"/>
</svg>
