<svg width="50" height="50" viewBox="0 0 50 50" fill="none" xmlns="http://www.w3.org/2000/svg">
<path d="M25.055 50H24.945C11.1905 50 0 38.8095 0 25.055V24.945C0 11.1905 11.1905 0 24.945 0H25.055C38.8095 0 50 11.1905 50 24.945V25.055C50 38.8095 38.8095 50 25.055 50ZM24.945 1.69245C12.123 1.69245 1.69245 12.123 1.69245 24.945V25.055C1.69245 37.877 12.123 48.3076 24.945 48.3076H25.055C37.877 48.3076 48.3075 37.877 48.3075 25.055V24.945C48.3075 12.123 37.877 1.69245 25.055 1.69245H24.945Z" fill="#149C88"/>
<path d="M32.4746 10.6743H17.5269C13.3974 10.6743 10.0378 14.0338 10.0378 18.1634V31.8383C10.0378 35.9679 13.3974 39.3274 17.5269 39.3274H32.4746C36.6042 39.3274 39.9637 35.9679 39.9637 31.8383V18.1634C39.9637 14.0338 36.6042 10.6743 32.4746 10.6743ZM12.6798 18.1634C12.6798 15.491 14.8545 13.3162 17.5269 13.3162H32.4746C35.147 13.3162 37.3218 15.491 37.3218 18.1634V31.8383C37.3218 34.5107 35.147 36.6855 32.4746 36.6855H17.5269C14.8545 36.6855 12.6798 34.5107 12.6798 31.8383V18.1634Z" fill="white"/>
<path d="M25.0008 31.9653C28.841 31.9653 31.9669 28.841 31.9669 24.9992C31.9669 21.1573 28.8426 18.0331 25.0008 18.0331C21.1589 18.0331 18.0347 21.1573 18.0347 24.9992C18.0347 28.841 21.1589 31.9653 25.0008 31.9653ZM25.0008 20.6766C27.3855 20.6766 29.325 22.6162 29.325 25.0009C29.325 27.3855 27.3855 29.3251 25.0008 29.3251C22.6161 29.3251 20.6766 27.3855 20.6766 25.0009C20.6766 22.6162 22.6161 20.6766 25.0008 20.6766Z" fill="white"/>
<path d="M32.6118 19.1585C33.6459 19.1585 34.4887 18.3174 34.4887 17.2816C34.4887 16.2458 33.6476 15.4047 32.6118 15.4047C31.576 15.4047 30.7349 16.2458 30.7349 17.2816C30.7349 18.3174 31.576 19.1585 32.6118 19.1585Z" fill="white"/>
</svg>
