<svg width="137" height="57" viewBox="0 0 137 57" fill="none" xmlns="http://www.w3.org/2000/svg">
<path d="M14.656 56.064C6.592 56.064 0 53.248 0 47.68C0 46.144 0.512 44.416 1.536 42.496C1.664 42.304 1.856 42.176 2.048 42.176C2.368 42.176 2.688 42.432 2.688 42.752C2.688 42.88 2.624 42.944 2.56 43.072C1.664 44.736 1.216 46.272 1.216 47.552C1.216 52.48 7.168 54.912 14.464 54.912C23.68 54.912 35.136 51.072 39.616 43.392C40.768 41.536 41.216 39.808 41.216 38.272C41.216 31.872 32.576 28.672 25.856 27.52C20.992 34.304 15.936 41.024 11.264 47.872C11.2 48.064 11.008 48.192 10.88 48.192C10.624 48.192 10.432 48 10.432 47.68L10.496 47.36C14.528 41.344 20.864 32.448 24.512 27.328C23.488 27.2 22.528 27.072 21.504 27.008C21.184 27.008 20.992 26.688 20.992 26.432C20.992 26.112 21.184 25.856 21.568 25.856L25.152 26.048C25.856 24.448 26.176 23.104 26.176 21.952C26.176 16.128 19.328 14.464 19.328 10.688C19.328 10.304 19.392 9.856 19.52 9.408C21.44 4.352 33.536 0.831997 44.416 0.831997C53.76 0.831997 62.08 3.456 62.08 10.048C62.08 11.456 61.696 13.056 60.864 14.848C55.872 25.6 40.64 27.2 29.888 27.2C36.224 28.928 42.432 32.512 42.432 38.336C42.432 40 41.92 41.92 40.64 43.968C35.84 52.032 24.256 56.064 14.656 56.064ZM29.824 26.112C40.448 26.112 55.168 24.512 59.84 14.4C60.608 12.864 60.928 11.456 60.928 10.176C60.928 4.288 53.248 1.92 44.544 1.92C34.112 1.92 22.272 5.312 20.544 9.792C20.48 10.048 20.416 10.368 20.416 10.624C20.416 13.76 27.392 15.744 27.392 21.888C27.392 22.464 27.328 23.104 27.136 23.744C31.936 17.024 36.672 10.304 40.576 4.416C40.704 4.224 40.896 4.16 41.024 4.16C41.344 4.16 41.6 4.416 41.6 4.736L41.472 5.056C37.248 11.392 32.064 18.752 26.88 26.048L29.824 26.112ZM62.0535 44.352C60.9015 44.352 60.3255 43.584 60.3255 42.496C60.3255 41.024 61.3495 39.104 62.6935 37.056C60.1335 39.168 53.8615 44.224 50.6615 44.224C49.4455 44.224 48.6775 43.392 48.6775 42.304C48.6775 39.104 54.3095 33.6 58.6615 33.6C59.8135 33.6 60.9655 34.048 61.7975 35.008L61.9255 35.392C61.9255 35.712 61.6695 35.968 61.3495 35.968C61.2215 35.968 61.0295 35.904 60.9015 35.712C60.2615 35.008 59.4295 34.688 58.5335 34.688C54.8855 34.688 49.7655 39.936 49.7655 42.24C49.7655 42.752 50.2135 43.2 50.7255 43.2C53.6695 43.2 62.4375 35.904 65.1255 33.6C65.2535 33.536 65.3815 33.472 65.5095 33.472C65.7655 33.472 66.0855 33.792 66.0855 34.048L65.9575 34.368C63.7175 37.568 61.4135 40.64 61.4135 42.368C61.4135 43.072 61.7975 43.456 62.3735 43.456C65.3175 43.456 74.9175 37.12 77.8615 35.072C78.0535 34.944 78.1815 34.944 78.3095 34.944C78.3735 34.944 78.6295 35.136 78.6295 35.328C78.6295 35.456 78.5655 35.584 78.4375 35.712C75.4295 37.824 65.8935 44.352 62.0535 44.352ZM82.0975 45.312C81.6495 45.312 81.2655 45.248 80.9455 45.056C80.3055 44.672 80.0495 44.032 80.0495 43.328C80.0495 40.896 83.1855 37.12 83.1855 35.52C83.1855 35.328 83.1215 35.136 83.0575 35.008L81.7775 33.536C80.9455 34.176 79.7295 34.752 78.4495 35.648C77.7455 35.968 77.7455 35.392 77.7455 35.392C77.7455 35.264 77.8735 35.072 78.0655 34.944C79.4095 34.048 80.3695 33.216 81.2655 32.512V32.32C81.2655 31.104 83.3135 29.696 84.1455 29.696C84.5935 29.696 84.7855 29.952 84.7855 30.208C84.7855 30.528 84.5295 30.976 84.2735 31.296C83.9535 31.68 83.4415 32.192 82.6735 32.832L84.0175 34.368C84.2095 34.624 84.2735 35.008 84.2735 35.392C84.2735 37.632 81.1375 41.408 81.1375 43.264C81.1375 43.648 81.2655 43.904 81.5855 44.096C81.7775 44.224 82.0335 44.288 82.2895 44.288C86.0015 44.288 98.0975 36.48 100.338 35.072C100.466 35.008 100.594 34.944 100.722 34.944C100.85 34.944 100.978 34.944 101.042 35.072C101.17 35.2 101.17 35.52 100.85 35.712C98.0335 37.568 86.5775 45.312 82.0975 45.312ZM94.359 46.784C92.695 46.784 91.223 45.568 91.095 43.904V43.776C91.095 43.008 91.415 42.688 91.735 42.688C91.863 42.688 91.991 42.752 92.119 42.88C93.143 43.712 94.487 44.096 96.023 44.096H96.663C98.967 40.384 99.287 32.512 104.343 32.128H104.407C104.791 32.128 104.983 32.384 104.983 32.704C104.983 32.96 104.791 33.28 104.407 33.28C100.631 33.6 99.927 40.192 98.007 43.968C103.959 43.008 111.895 38.208 116.759 35.072L117.079 34.944C117.207 34.944 117.335 35.008 117.399 35.072C117.463 35.136 117.527 35.2 117.527 35.328C117.527 35.456 117.463 35.584 117.207 35.712C112.087 39.104 103.639 44.544 97.303 45.184C96.471 46.336 95.383 46.784 94.359 46.784ZM94.423 45.696C94.871 45.696 95.319 45.568 95.703 45.248C94.487 45.184 93.335 44.928 92.375 44.416C92.695 45.184 93.591 45.696 94.423 45.696ZM113.868 45.12C113.548 45.12 113.228 45.12 112.908 44.992C111.884 44.672 111.564 43.84 111.564 42.944C111.564 41.728 112.14 40.256 112.589 39.488C113.676 37.696 115.404 35.712 117.837 34.24L118.093 34.176C118.413 34.176 118.669 34.496 118.669 34.752C118.669 34.944 118.605 35.072 118.413 35.2C116.877 36.16 115.34 37.504 114.252 39.04C113.74 39.68 112.652 41.6 112.652 42.88C112.652 43.584 112.908 44.032 113.804 44.096H113.932C116.108 44.096 119.885 40.384 120.781 38.912C119.757 37.952 119.373 36.8 119.373 35.84C119.373 34.56 120.141 33.6 121.101 33.6C121.357 33.6 121.549 33.6 121.805 33.728C122.701 34.112 123.085 34.944 123.085 35.84C123.085 36.736 122.765 37.76 122.253 38.656C122.829 38.912 123.533 39.04 124.365 39.04C128.013 39.04 133.645 36.48 135.885 35.072C136.077 34.944 136.141 34.944 136.205 34.944C136.397 34.88 136.653 35.264 136.589 35.328C136.589 35.456 136.525 35.584 136.333 35.712C134.221 37.056 128.333 40.192 124.173 40.192C123.213 40.192 122.317 40 121.613 39.616C119.949 41.92 116.556 45.12 113.868 45.12ZM121.357 37.888C121.805 37.12 121.933 36.48 121.933 35.968C121.933 35.264 121.613 34.816 121.293 34.752H121.165C120.653 34.752 120.461 35.2 120.461 35.776C120.461 36.48 120.845 37.44 121.357 37.888Z" fill="#E0DFCB"/>
</svg>
