<svg width="145" height="84" viewBox="0 0 145 84" fill="none" xmlns="http://www.w3.org/2000/svg">
<mask id="path-1-outside-1_2014_80" maskUnits="userSpaceOnUse" x="4" y="9" width="138" height="57" fill="black">
<rect fill="white" x="4" y="9" width="138" height="57"/>
<path d="M19.1873 65.064C11.1233 65.064 4.53125 62.248 4.53125 56.68C4.53125 55.144 5.04325 53.416 6.06725 51.496C6.19525 51.304 6.38725 51.176 6.57925 51.176C6.89925 51.176 7.21925 51.432 7.21925 51.752C7.21925 51.88 7.15525 51.944 7.09125 52.072C6.19525 53.736 5.74725 55.272 5.74725 56.552C5.74725 61.48 11.6993 63.912 18.9953 63.912C28.2113 63.912 39.6673 60.072 44.1473 52.392C45.2993 50.536 45.7473 48.808 45.7473 47.272C45.7473 40.872 37.1073 37.672 30.3873 36.52C25.5233 43.304 20.4673 50.024 15.7953 56.872C15.7313 57.064 15.5393 57.192 15.4113 57.192C15.1553 57.192 14.9633 57 14.9633 56.68L15.0273 56.36C19.0593 50.344 25.3953 41.448 29.0433 36.328C28.0193 36.2 27.0593 36.072 26.0353 36.008C25.7153 36.008 25.5233 35.688 25.5233 35.432C25.5233 35.112 25.7153 34.856 26.0993 34.856L29.6833 35.048C30.3873 33.448 30.7073 32.104 30.7073 30.952C30.7073 25.128 23.8593 23.464 23.8593 19.688C23.8593 19.304 23.9233 18.856 24.0513 18.408C25.9713 13.352 38.0673 9.832 48.9473 9.832C58.2913 9.832 66.6113 12.456 66.6113 19.048C66.6113 20.456 66.2273 22.056 65.3953 23.848C60.4033 34.6 45.1713 36.2 34.4193 36.2C40.7553 37.928 46.9633 41.512 46.9633 47.336C46.9633 49 46.4513 50.92 45.1713 52.968C40.3713 61.032 28.7873 65.064 19.1873 65.064ZM34.3553 35.112C44.9793 35.112 59.6993 33.512 64.3713 23.4C65.1393 21.864 65.4593 20.456 65.4593 19.176C65.4593 13.288 57.7793 10.92 49.0753 10.92C38.6433 10.92 26.8033 14.312 25.0753 18.792C25.0113 19.048 24.9473 19.368 24.9473 19.624C24.9473 22.76 31.9233 24.744 31.9233 30.888C31.9233 31.464 31.8593 32.104 31.6673 32.744C36.4673 26.024 41.2033 19.304 45.1073 13.416C45.2353 13.224 45.4273 13.16 45.5553 13.16C45.8753 13.16 46.1313 13.416 46.1313 13.736L46.0033 14.056C41.7793 20.392 36.5953 27.752 31.4113 35.048L34.3553 35.112ZM66.5848 53.352C65.4328 53.352 64.8568 52.584 64.8568 51.496C64.8568 50.024 65.8808 48.104 67.2248 46.056C64.6648 48.168 58.3927 53.224 55.1927 53.224C53.9767 53.224 53.2087 52.392 53.2087 51.304C53.2087 48.104 58.8407 42.6 63.1927 42.6C64.3448 42.6 65.4968 43.048 66.3288 44.008L66.4568 44.392C66.4568 44.712 66.2008 44.968 65.8808 44.968C65.7528 44.968 65.5608 44.904 65.4328 44.712C64.7928 44.008 63.9608 43.688 63.0648 43.688C59.4168 43.688 54.2967 48.936 54.2967 51.24C54.2967 51.752 54.7448 52.2 55.2567 52.2C58.2007 52.2 66.9688 44.904 69.6568 42.6C69.7848 42.536 69.9128 42.472 70.0408 42.472C70.2968 42.472 70.6168 42.792 70.6168 43.048L70.4888 43.368C68.2488 46.568 65.9448 49.64 65.9448 51.368C65.9448 52.072 66.3288 52.456 66.9048 52.456C69.8488 52.456 79.4488 46.12 82.3928 44.072C82.5848 43.944 82.7128 43.944 82.8408 43.944C82.9048 43.944 83.1608 44.136 83.1608 44.328C83.1608 44.456 83.0968 44.584 82.9688 44.712C79.9608 46.824 70.4248 53.352 66.5848 53.352ZM86.6288 54.312C86.1808 54.312 85.7968 54.248 85.4768 54.056C84.8368 53.672 84.5807 53.032 84.5807 52.328C84.5807 49.896 87.7168 46.12 87.7168 44.52C87.7168 44.328 87.6528 44.136 87.5888 44.008L86.3088 42.536C85.4768 43.176 84.2608 43.752 82.9808 44.648C82.2767 44.968 82.2767 44.392 82.2767 44.392C82.2767 44.264 82.4047 44.072 82.5968 43.944C83.9408 43.048 84.9008 42.216 85.7968 41.512V41.32C85.7968 40.104 87.8448 38.696 88.6768 38.696C89.1248 38.696 89.3168 38.952 89.3168 39.208C89.3168 39.528 89.0608 39.976 88.8048 40.296C88.4848 40.68 87.9728 41.192 87.2048 41.832L88.5488 43.368C88.7408 43.624 88.8048 44.008 88.8048 44.392C88.8048 46.632 85.6688 50.408 85.6688 52.264C85.6688 52.648 85.7968 52.904 86.1168 53.096C86.3088 53.224 86.5648 53.288 86.8208 53.288C90.5328 53.288 102.629 45.48 104.869 44.072C104.997 44.008 105.125 43.944 105.253 43.944C105.381 43.944 105.509 43.944 105.573 44.072C105.701 44.2 105.701 44.52 105.381 44.712C102.565 46.568 91.1088 54.312 86.6288 54.312ZM98.8902 55.784C97.2262 55.784 95.7542 54.568 95.6262 52.904V52.776C95.6262 52.008 95.9462 51.688 96.2662 51.688C96.3942 51.688 96.5222 51.752 96.6502 51.88C97.6742 52.712 99.0182 53.096 100.554 53.096H101.194C103.498 49.384 103.818 41.512 108.874 41.128H108.938C109.322 41.128 109.514 41.384 109.514 41.704C109.514 41.96 109.322 42.28 108.938 42.28C105.162 42.6 104.458 49.192 102.538 52.968C108.49 52.008 116.426 47.208 121.29 44.072L121.61 43.944C121.738 43.944 121.866 44.008 121.93 44.072C121.994 44.136 122.058 44.2 122.058 44.328C122.058 44.456 121.994 44.584 121.738 44.712C116.618 48.104 108.17 53.544 101.834 54.184C101.002 55.336 99.9142 55.784 98.8902 55.784ZM98.9542 54.696C99.4022 54.696 99.8502 54.568 100.234 54.248C99.0182 54.184 97.8662 53.928 96.9062 53.416C97.2262 54.184 98.1222 54.696 98.9542 54.696ZM118.4 54.12C118.08 54.12 117.76 54.12 117.44 53.992C116.416 53.672 116.096 52.84 116.096 51.944C116.096 50.728 116.672 49.256 117.12 48.488C118.208 46.696 119.936 44.712 122.368 43.24L122.624 43.176C122.944 43.176 123.2 43.496 123.2 43.752C123.2 43.944 123.136 44.072 122.944 44.2C121.408 45.16 119.872 46.504 118.784 48.04C118.272 48.68 117.184 50.6 117.184 51.88C117.184 52.584 117.44 53.032 118.336 53.096H118.464C120.64 53.096 124.416 49.384 125.312 47.912C124.288 46.952 123.904 45.8 123.904 44.84C123.904 43.56 124.672 42.6 125.632 42.6C125.888 42.6 126.08 42.6 126.336 42.728C127.232 43.112 127.616 43.944 127.616 44.84C127.616 45.736 127.296 46.76 126.784 47.656C127.36 47.912 128.064 48.04 128.896 48.04C132.544 48.04 138.176 45.48 140.416 44.072C140.608 43.944 140.672 43.944 140.736 43.944C140.928 43.88 141.184 44.264 141.12 44.328C141.12 44.456 141.056 44.584 140.864 44.712C138.752 46.056 132.864 49.192 128.704 49.192C127.744 49.192 126.848 49 126.144 48.616C124.48 50.92 121.088 54.12 118.4 54.12ZM125.888 46.888C126.336 46.12 126.464 45.48 126.464 44.968C126.464 44.264 126.144 43.816 125.824 43.752H125.696C125.184 43.752 124.992 44.2 124.992 44.776C124.992 45.48 125.376 46.44 125.888 46.888Z"/>
</mask>
<path d="M19.1873 65.064C11.1233 65.064 4.53125 62.248 4.53125 56.68C4.53125 55.144 5.04325 53.416 6.06725 51.496C6.19525 51.304 6.38725 51.176 6.57925 51.176C6.89925 51.176 7.21925 51.432 7.21925 51.752C7.21925 51.88 7.15525 51.944 7.09125 52.072C6.19525 53.736 5.74725 55.272 5.74725 56.552C5.74725 61.48 11.6993 63.912 18.9953 63.912C28.2113 63.912 39.6673 60.072 44.1473 52.392C45.2993 50.536 45.7473 48.808 45.7473 47.272C45.7473 40.872 37.1073 37.672 30.3873 36.52C25.5233 43.304 20.4673 50.024 15.7953 56.872C15.7313 57.064 15.5393 57.192 15.4113 57.192C15.1553 57.192 14.9633 57 14.9633 56.68L15.0273 56.36C19.0593 50.344 25.3953 41.448 29.0433 36.328C28.0193 36.2 27.0593 36.072 26.0353 36.008C25.7153 36.008 25.5233 35.688 25.5233 35.432C25.5233 35.112 25.7153 34.856 26.0993 34.856L29.6833 35.048C30.3873 33.448 30.7073 32.104 30.7073 30.952C30.7073 25.128 23.8593 23.464 23.8593 19.688C23.8593 19.304 23.9233 18.856 24.0513 18.408C25.9713 13.352 38.0673 9.832 48.9473 9.832C58.2913 9.832 66.6113 12.456 66.6113 19.048C66.6113 20.456 66.2273 22.056 65.3953 23.848C60.4033 34.6 45.1713 36.2 34.4193 36.2C40.7553 37.928 46.9633 41.512 46.9633 47.336C46.9633 49 46.4513 50.92 45.1713 52.968C40.3713 61.032 28.7873 65.064 19.1873 65.064ZM34.3553 35.112C44.9793 35.112 59.6993 33.512 64.3713 23.4C65.1393 21.864 65.4593 20.456 65.4593 19.176C65.4593 13.288 57.7793 10.92 49.0753 10.92C38.6433 10.92 26.8033 14.312 25.0753 18.792C25.0113 19.048 24.9473 19.368 24.9473 19.624C24.9473 22.76 31.9233 24.744 31.9233 30.888C31.9233 31.464 31.8593 32.104 31.6673 32.744C36.4673 26.024 41.2033 19.304 45.1073 13.416C45.2353 13.224 45.4273 13.16 45.5553 13.16C45.8753 13.16 46.1313 13.416 46.1313 13.736L46.0033 14.056C41.7793 20.392 36.5953 27.752 31.4113 35.048L34.3553 35.112ZM66.5848 53.352C65.4328 53.352 64.8568 52.584 64.8568 51.496C64.8568 50.024 65.8808 48.104 67.2248 46.056C64.6648 48.168 58.3927 53.224 55.1927 53.224C53.9767 53.224 53.2087 52.392 53.2087 51.304C53.2087 48.104 58.8407 42.6 63.1927 42.6C64.3448 42.6 65.4968 43.048 66.3288 44.008L66.4568 44.392C66.4568 44.712 66.2008 44.968 65.8808 44.968C65.7528 44.968 65.5608 44.904 65.4328 44.712C64.7928 44.008 63.9608 43.688 63.0648 43.688C59.4168 43.688 54.2967 48.936 54.2967 51.24C54.2967 51.752 54.7448 52.2 55.2567 52.2C58.2007 52.2 66.9688 44.904 69.6568 42.6C69.7848 42.536 69.9128 42.472 70.0408 42.472C70.2968 42.472 70.6168 42.792 70.6168 43.048L70.4888 43.368C68.2488 46.568 65.9448 49.64 65.9448 51.368C65.9448 52.072 66.3288 52.456 66.9048 52.456C69.8488 52.456 79.4488 46.12 82.3928 44.072C82.5848 43.944 82.7128 43.944 82.8408 43.944C82.9048 43.944 83.1608 44.136 83.1608 44.328C83.1608 44.456 83.0968 44.584 82.9688 44.712C79.9608 46.824 70.4248 53.352 66.5848 53.352ZM86.6288 54.312C86.1808 54.312 85.7968 54.248 85.4768 54.056C84.8368 53.672 84.5807 53.032 84.5807 52.328C84.5807 49.896 87.7168 46.12 87.7168 44.52C87.7168 44.328 87.6528 44.136 87.5888 44.008L86.3088 42.536C85.4768 43.176 84.2608 43.752 82.9808 44.648C82.2767 44.968 82.2767 44.392 82.2767 44.392C82.2767 44.264 82.4047 44.072 82.5968 43.944C83.9408 43.048 84.9008 42.216 85.7968 41.512V41.32C85.7968 40.104 87.8448 38.696 88.6768 38.696C89.1248 38.696 89.3168 38.952 89.3168 39.208C89.3168 39.528 89.0608 39.976 88.8048 40.296C88.4848 40.68 87.9728 41.192 87.2048 41.832L88.5488 43.368C88.7408 43.624 88.8048 44.008 88.8048 44.392C88.8048 46.632 85.6688 50.408 85.6688 52.264C85.6688 52.648 85.7968 52.904 86.1168 53.096C86.3088 53.224 86.5648 53.288 86.8208 53.288C90.5328 53.288 102.629 45.48 104.869 44.072C104.997 44.008 105.125 43.944 105.253 43.944C105.381 43.944 105.509 43.944 105.573 44.072C105.701 44.2 105.701 44.52 105.381 44.712C102.565 46.568 91.1088 54.312 86.6288 54.312ZM98.8902 55.784C97.2262 55.784 95.7542 54.568 95.6262 52.904V52.776C95.6262 52.008 95.9462 51.688 96.2662 51.688C96.3942 51.688 96.5222 51.752 96.6502 51.88C97.6742 52.712 99.0182 53.096 100.554 53.096H101.194C103.498 49.384 103.818 41.512 108.874 41.128H108.938C109.322 41.128 109.514 41.384 109.514 41.704C109.514 41.96 109.322 42.28 108.938 42.28C105.162 42.6 104.458 49.192 102.538 52.968C108.49 52.008 116.426 47.208 121.29 44.072L121.61 43.944C121.738 43.944 121.866 44.008 121.93 44.072C121.994 44.136 122.058 44.2 122.058 44.328C122.058 44.456 121.994 44.584 121.738 44.712C116.618 48.104 108.17 53.544 101.834 54.184C101.002 55.336 99.9142 55.784 98.8902 55.784ZM98.9542 54.696C99.4022 54.696 99.8502 54.568 100.234 54.248C99.0182 54.184 97.8662 53.928 96.9062 53.416C97.2262 54.184 98.1222 54.696 98.9542 54.696ZM118.4 54.12C118.08 54.12 117.76 54.12 117.44 53.992C116.416 53.672 116.096 52.84 116.096 51.944C116.096 50.728 116.672 49.256 117.12 48.488C118.208 46.696 119.936 44.712 122.368 43.24L122.624 43.176C122.944 43.176 123.2 43.496 123.2 43.752C123.2 43.944 123.136 44.072 122.944 44.2C121.408 45.16 119.872 46.504 118.784 48.04C118.272 48.68 117.184 50.6 117.184 51.88C117.184 52.584 117.44 53.032 118.336 53.096H118.464C120.64 53.096 124.416 49.384 125.312 47.912C124.288 46.952 123.904 45.8 123.904 44.84C123.904 43.56 124.672 42.6 125.632 42.6C125.888 42.6 126.08 42.6 126.336 42.728C127.232 43.112 127.616 43.944 127.616 44.84C127.616 45.736 127.296 46.76 126.784 47.656C127.36 47.912 128.064 48.04 128.896 48.04C132.544 48.04 138.176 45.48 140.416 44.072C140.608 43.944 140.672 43.944 140.736 43.944C140.928 43.88 141.184 44.264 141.12 44.328C141.12 44.456 141.056 44.584 140.864 44.712C138.752 46.056 132.864 49.192 128.704 49.192C127.744 49.192 126.848 49 126.144 48.616C124.48 50.92 121.088 54.12 118.4 54.12ZM125.888 46.888C126.336 46.12 126.464 45.48 126.464 44.968C126.464 44.264 126.144 43.816 125.824 43.752H125.696C125.184 43.752 124.992 44.2 124.992 44.776C124.992 45.48 125.376 46.44 125.888 46.888Z" fill="#149C88"/>
<path d="M6.06725 51.496L5.65122 51.2186L5.63762 51.2391L5.62607 51.2607L6.06725 51.496ZM7.09125 52.072L7.53149 52.309L7.53508 52.3024L7.53846 52.2956L7.09125 52.072ZM44.1473 52.392L43.7223 52.1282L43.7154 52.1401L44.1473 52.392ZM30.3873 36.52L30.4717 36.0272L30.1633 35.9743L29.9809 36.2287L30.3873 36.52ZM15.7953 56.872L15.3822 56.5902L15.3429 56.6478L15.3209 56.7139L15.7953 56.872ZM14.9633 56.68L14.473 56.5819L14.4633 56.6305V56.68H14.9633ZM15.0273 56.36L14.6119 56.0816L14.5565 56.1643L14.537 56.2619L15.0273 56.36ZM29.0433 36.328L29.4505 36.6181L29.9366 35.9358L29.1053 35.8319L29.0433 36.328ZM26.0353 36.008L26.0664 35.509L26.0509 35.508H26.0353V36.008ZM26.0993 34.856L26.126 34.3567L26.1126 34.356H26.0993V34.856ZM29.6833 35.048L29.6565 35.5473L30.0017 35.5658L30.1409 35.2494L29.6833 35.048ZM24.0513 18.408L23.5838 18.2305L23.5763 18.2503L23.5705 18.2706L24.0513 18.408ZM65.3953 23.848L64.9417 23.6374L64.9417 23.6374L65.3953 23.848ZM34.4193 36.2V35.7L34.2877 36.6824L34.4193 36.2ZM45.1713 52.968L44.7472 52.7029L44.7416 52.7123L45.1713 52.968ZM34.3553 35.112L34.3444 35.612H34.3553V35.112ZM64.3713 23.4L63.924 23.1764L63.9206 23.1833L63.9174 23.1903L64.3713 23.4ZM25.0753 18.792L24.6087 18.6121L24.5977 18.6408L24.5902 18.6707L25.0753 18.792ZM31.6673 32.744L31.1883 32.6003L32.0741 33.0346L31.6673 32.744ZM45.1073 13.416L44.6912 13.1386L44.6905 13.1397L45.1073 13.416ZM46.1313 13.736L46.5955 13.9217L46.6313 13.8323V13.736H46.1313ZM46.0033 14.056L46.4193 14.3333L46.4482 14.29L46.4675 14.2417L46.0033 14.056ZM31.4113 35.048L31.0037 34.7584L30.4573 35.5274L31.4004 35.5479L31.4113 35.048ZM19.1873 65.064V64.564C15.2029 64.564 11.6278 63.8668 9.0684 62.5177C6.52174 61.1753 5.03125 59.2238 5.03125 56.68H4.53125H4.03125C4.03125 59.7042 5.83676 61.9447 8.6021 63.4023C11.3547 64.8533 15.1076 65.564 19.1873 65.564V65.064ZM4.53125 56.68H5.03125C5.03125 55.2531 5.50792 53.6072 6.50843 51.7313L6.06725 51.496L5.62607 51.2607C4.57858 53.2248 4.03125 55.0349 4.03125 56.68H4.53125ZM6.06725 51.496L6.48328 51.7734C6.51279 51.7291 6.54436 51.7007 6.56769 51.6858C6.5911 51.6709 6.59531 51.676 6.57925 51.676V51.176V50.676C6.16717 50.676 5.83817 50.9382 5.65122 51.2186L6.06725 51.496ZM6.57925 51.176V51.676C6.61061 51.676 6.65618 51.691 6.69178 51.7218C6.72597 51.7515 6.71925 51.7657 6.71925 51.752H7.21925H7.71925C7.71925 51.4183 7.55253 51.1445 7.34672 50.9662C7.14232 50.789 6.86789 50.676 6.57925 50.676V51.176ZM7.21925 51.752H6.71925C6.71925 51.7406 6.72091 51.7248 6.72544 51.708C6.72962 51.6925 6.73404 51.6844 6.73204 51.6884C6.72823 51.696 6.72298 51.7053 6.70516 51.7361C6.68972 51.7629 6.66723 51.802 6.64404 51.8484L7.09125 52.072L7.53846 52.2956C7.54727 52.278 7.55678 52.2611 7.57134 52.2359C7.58352 52.2147 7.60628 52.176 7.62646 52.1356C7.675 52.0385 7.71925 51.9136 7.71925 51.752H7.21925ZM7.09125 52.072L6.65101 51.8349C5.73081 53.5439 5.24725 55.1625 5.24725 56.552H5.74725H6.24725C6.24725 55.3815 6.65969 53.9281 7.53149 52.309L7.09125 52.072ZM5.74725 56.552H5.24725C5.24725 59.2629 6.90054 61.2466 9.40809 62.5254C11.9036 63.7981 15.3025 64.412 18.9953 64.412V63.912V63.412C15.392 63.412 12.1669 62.8099 9.86241 61.6346C7.56996 60.4654 6.24725 58.7691 6.24725 56.552H5.74725ZM18.9953 63.912V64.412C23.6667 64.412 28.9007 63.4399 33.5407 61.4931C38.1759 59.5482 42.2657 56.6098 44.5791 52.6439L44.1473 52.392L43.7154 52.1401C41.5488 55.8542 37.6706 58.6758 33.1538 60.5709C28.6418 62.4641 23.5398 63.412 18.9953 63.412V63.912ZM44.1473 52.392L44.5721 52.6557C45.7684 50.7283 46.2473 48.9099 46.2473 47.272H45.7473H45.2473C45.2473 48.7061 44.8301 50.3437 43.7224 52.1283L44.1473 52.392ZM45.7473 47.272H46.2473C46.2473 43.8101 43.9029 41.2771 40.8385 39.4957C37.767 37.7101 33.8622 36.6084 30.4717 36.0272L30.3873 36.52L30.3028 37.0128C33.6323 37.5836 37.4075 38.6579 40.336 40.3603C43.2716 42.0669 45.2473 44.3339 45.2473 47.272H45.7473ZM30.3873 36.52L29.9809 36.2287C25.1265 42.9993 20.0581 49.7366 15.3822 56.5902L15.7953 56.872L16.2083 57.1538C20.8764 50.3114 25.92 43.6087 30.7936 36.8113L30.3873 36.52ZM15.7953 56.872L15.3209 56.7139C15.3233 56.7066 15.3256 56.7038 15.325 56.7046C15.3243 56.7056 15.3225 56.7076 15.3203 56.7093C15.3177 56.7113 15.3194 56.7093 15.3284 56.7056C15.3332 56.7037 15.3419 56.7006 15.3545 56.6978C15.3669 56.6951 15.3862 56.692 15.4113 56.692V57.192V57.692C15.6219 57.692 15.8073 57.5974 15.9342 57.4987C16.0706 57.3926 16.2014 57.2348 16.2696 57.0301L15.7953 56.872ZM15.4113 57.192V56.692C15.4102 56.692 15.4173 56.6919 15.4292 56.697C15.4414 56.7022 15.4528 56.7104 15.4612 56.7197C15.4695 56.7288 15.4707 56.7342 15.4693 56.7302C15.4678 56.7258 15.4633 56.7102 15.4633 56.68H14.9633H14.4633C14.4633 56.9398 14.5425 57.1956 14.7213 57.3923C14.9027 57.5919 15.1526 57.692 15.4113 57.692V57.192ZM14.9633 56.68L15.4535 56.7781L15.5175 56.4581L15.0273 56.36L14.537 56.2619L14.473 56.5819L14.9633 56.68ZM15.0273 56.36L15.4426 56.6384C19.4697 50.6296 25.8011 41.7401 29.4505 36.6181L29.0433 36.328L28.636 36.0379C24.9894 41.1559 18.6488 50.0584 14.6119 56.0816L15.0273 56.36ZM29.0433 36.328L29.1053 35.8319C28.0875 35.7046 27.1095 35.5742 26.0664 35.509L26.0353 36.008L26.0041 36.507C27.009 36.5698 27.951 36.6954 28.9812 36.8241L29.0433 36.328ZM26.0353 36.008V35.508C26.0415 35.508 26.0508 35.5102 26.0577 35.514C26.0628 35.5167 26.0598 35.5166 26.0524 35.5071C26.0448 35.4974 26.0365 35.4829 26.0304 35.4655C26.0242 35.4476 26.0233 35.4352 26.0233 35.432H25.5233H25.0233C25.0233 35.6737 25.1099 35.9261 25.2661 36.1249C25.4286 36.3317 25.6917 36.508 26.0353 36.508V36.008ZM25.5233 35.432H26.0233C26.0233 35.3692 26.0414 35.3558 26.0347 35.3631C26.0316 35.3665 26.0296 35.3666 26.0341 35.3648C26.0394 35.3626 26.059 35.356 26.0993 35.356V34.856V34.356C25.7901 34.356 25.5047 34.4629 25.2998 34.6849C25.1011 34.9002 25.0233 35.1748 25.0233 35.432H25.5233ZM26.0993 34.856L26.0725 35.3553L29.6565 35.5473L29.6833 35.048L29.71 34.5487L26.126 34.3567L26.0993 34.856ZM29.6833 35.048L30.1409 35.2494C30.8624 33.6095 31.2073 32.1952 31.2073 30.952H30.7073H30.2073C30.2073 32.0128 29.9121 33.2865 29.2256 34.8466L29.6833 35.048ZM30.7073 30.952H31.2073C31.2073 27.8135 29.3469 25.8124 27.6265 24.1884C26.7471 23.3583 25.9307 22.65 25.3149 21.9038C24.709 21.1695 24.3593 20.4678 24.3593 19.688H23.8593H23.3593C23.3593 20.7962 23.8655 21.7185 24.5436 22.5402C25.2118 23.35 26.1074 24.1297 26.94 24.9156C28.6436 26.5236 30.2073 28.2665 30.2073 30.952H30.7073ZM23.8593 19.688H24.3593C24.3593 19.3556 24.4153 18.954 24.532 18.5454L24.0513 18.408L23.5705 18.2706C23.4312 18.758 23.3593 19.2524 23.3593 19.688H23.8593ZM24.0513 18.408L24.5187 18.5855C24.9458 17.4608 25.9645 16.3657 27.4971 15.352C29.0222 14.3434 31.0097 13.4464 33.2946 12.6992C37.8639 11.2051 43.555 10.332 48.9473 10.332V9.832V9.332C43.4595 9.332 37.6626 10.2188 32.9839 11.7488C30.6448 12.5136 28.5683 13.4446 26.9454 14.518C25.33 15.5863 24.1167 16.8272 23.5838 18.2305L24.0513 18.408ZM48.9473 9.832V10.332C53.5846 10.332 57.9198 10.9849 61.0759 12.423C64.2205 13.8559 66.1113 16.0186 66.1113 19.048H66.6113H67.1113C67.1113 15.4854 64.842 13.0401 61.4906 11.513C58.1507 9.99114 53.6539 9.332 48.9473 9.332V9.832ZM66.6113 19.048H66.1113C66.1113 20.3656 65.7516 21.8932 64.9417 23.6374L65.3953 23.848L65.8488 24.0586C66.7029 22.2188 67.1113 20.5464 67.1113 19.048H66.6113ZM65.3953 23.848L64.9417 23.6374C62.5303 28.8313 57.6302 31.854 51.9227 33.5773C46.2167 35.3002 39.7783 35.7 34.4193 35.7V36.2V36.7C39.8122 36.7 46.3658 36.2998 52.2118 34.5347C58.0563 32.77 63.2682 29.6167 65.8488 24.0586L65.3953 23.848ZM34.4193 36.2L34.2877 36.6824C37.4193 37.5365 40.4859 38.8413 42.7585 40.6253C45.0255 42.4049 46.4633 44.6257 46.4633 47.336H46.9633H47.4633C47.4633 44.2223 45.797 41.7391 43.376 39.8387C40.9606 37.9427 37.7552 36.5915 34.5508 35.7176L34.4193 36.2ZM46.9633 47.336H46.4633C46.4633 48.895 45.9839 50.7243 44.7473 52.703L45.1713 52.968L45.5953 53.233C46.9186 51.1157 47.4633 49.105 47.4633 47.336H46.9633ZM45.1713 52.968L44.7416 52.7123C42.4123 56.6256 38.4159 59.5912 33.782 61.5805C29.1512 63.5686 23.9226 64.564 19.1873 64.564V65.064V65.564C24.0519 65.564 29.4153 64.5434 34.1765 62.4995C38.9346 60.4568 43.1302 57.3744 45.6009 53.2237L45.1713 52.968ZM34.3553 35.112V35.612C39.6845 35.612 46.0771 35.2117 51.7379 33.5272C57.395 31.8438 62.4032 28.8518 64.8251 23.6097L64.3713 23.4L63.9174 23.1903C61.6674 28.0602 56.9795 30.9241 51.4526 32.5688C45.9294 34.2123 39.65 34.612 34.3553 34.612V35.112ZM64.3713 23.4L64.8185 23.6236C65.617 22.0265 65.9593 20.5424 65.9593 19.176H65.4593H64.9593C64.9593 20.3696 64.6615 21.7015 63.924 23.1764L64.3713 23.4ZM65.4593 19.176H65.9593C65.9593 15.9563 63.8387 13.7536 60.7332 12.3826C57.6352 11.0149 53.4606 10.42 49.0753 10.42V10.92V11.42C53.3939 11.42 57.4113 12.0091 60.3293 13.2974C63.2398 14.5824 64.9593 16.5077 64.9593 19.176H65.4593ZM49.0753 10.92V10.42C43.8114 10.42 38.1926 11.2749 33.6613 12.699C31.3962 13.4109 29.3856 14.2704 27.8222 15.2481C26.2705 16.2184 25.0982 17.3431 24.6087 18.6121L25.0753 18.792L25.5418 18.9719C25.9163 18.0009 26.872 17.0216 28.3524 16.0959C29.8209 15.1776 31.7463 14.3491 33.9612 13.653C38.3899 12.2611 43.9071 11.42 49.0753 11.42V10.92ZM25.0753 18.792L24.5902 18.6707C24.5244 18.9338 24.4473 19.3034 24.4473 19.624H24.9473H25.4473C25.4473 19.4326 25.4981 19.1622 25.5603 18.9133L25.0753 18.792ZM24.9473 19.624H24.4473C24.4473 20.6004 24.9909 21.4316 25.6664 22.1784C26.3363 22.9189 27.2521 23.6941 28.091 24.4906C29.8149 26.1275 31.4233 28.0335 31.4233 30.888H31.9233H32.4233C32.4233 27.5985 30.5436 25.4405 28.7795 23.7654C27.8744 22.9059 27.0462 22.2131 26.4081 21.5076C25.7756 20.8084 25.4473 20.2156 25.4473 19.624H24.9473ZM31.9233 30.888H31.4233C31.4233 31.4284 31.363 32.018 31.1883 32.6003L31.6673 32.744L32.1462 32.8877C32.3555 32.19 32.4233 31.4996 32.4233 30.888H31.9233ZM31.6673 32.744L32.0741 33.0346C36.8746 26.314 41.6149 19.588 45.524 13.6923L45.1073 13.416L44.6905 13.1397C40.7916 19.02 36.0599 25.734 31.2604 32.4534L31.6673 32.744ZM45.1073 13.416L45.5233 13.6934C45.5301 13.683 45.5364 13.6766 45.5411 13.6725C45.546 13.6683 45.5507 13.6653 45.5549 13.6632C45.5593 13.661 45.5628 13.6599 45.5645 13.6595C45.5666 13.659 45.564 13.66 45.5553 13.66V13.16V12.66C45.2816 12.66 44.9233 12.7905 44.6912 13.1386L45.1073 13.416ZM45.5553 13.16V13.66C45.5991 13.66 45.6313 13.6921 45.6313 13.736H46.1313H46.6313C46.6313 13.1399 46.1514 12.66 45.5553 12.66V13.16ZM46.1313 13.736L45.667 13.5503L45.539 13.8703L46.0033 14.056L46.4675 14.2417L46.5955 13.9217L46.1313 13.736ZM46.0033 14.056L45.5872 13.7786C41.3678 20.1078 36.1877 27.4624 31.0037 34.7584L31.4113 35.048L31.8188 35.3376C37.0028 28.0416 42.1907 20.6762 46.4193 14.3333L46.0033 14.056ZM31.4113 35.048L31.4004 35.5479L34.3444 35.6119L34.3553 35.112L34.3661 34.6121L31.4221 34.5481L31.4113 35.048ZM67.2248 46.056L67.6428 46.3303L66.9066 45.6703L67.2248 46.056ZM66.3288 44.008L66.8031 43.8499L66.7717 43.7556L66.7066 43.6805L66.3288 44.008ZM66.4568 44.392H66.9568V44.3109L66.9311 44.2339L66.4568 44.392ZM65.4328 44.712L65.8488 44.4346L65.828 44.4034L65.8027 44.3757L65.4328 44.712ZM69.6568 42.6L69.4331 42.1528L69.3781 42.1803L69.3314 42.2204L69.6568 42.6ZM70.6168 43.048L71.081 43.2337L71.1168 43.1443V43.048H70.6168ZM70.4888 43.368L70.8984 43.6547L70.9315 43.6074L70.953 43.5537L70.4888 43.368ZM82.3928 44.072L82.1153 43.6559L82.1072 43.6615L82.3928 44.072ZM82.9688 44.712L83.2561 45.1212L83.2916 45.0963L83.3223 45.0656L82.9688 44.712ZM66.5848 53.352V52.852C66.1266 52.852 65.8416 52.7038 65.6645 52.5021C65.4787 52.2906 65.3568 51.957 65.3568 51.496H64.8568H64.3568C64.3568 52.123 64.5228 52.7174 64.913 53.1619C65.3119 53.6162 65.8909 53.852 66.5848 53.852V53.352ZM64.8568 51.496H65.3568C65.3568 50.8658 65.5789 50.0951 65.9908 49.2013C66.3997 48.3142 66.9763 47.346 67.6428 46.3303L67.2248 46.056L66.8067 45.7817C66.1292 46.814 65.5218 47.8298 65.0827 48.7827C64.6466 49.7289 64.3568 50.6542 64.3568 51.496H64.8568ZM67.2248 46.056L66.9066 45.6703C65.6283 46.7249 63.4367 48.5031 61.1711 50.0162C60.0379 50.7729 58.8968 51.4562 57.85 51.9485C56.7909 52.4466 55.8803 52.724 55.1927 52.724V53.224V53.724C56.1052 53.724 57.1786 53.3694 58.2755 52.8535C59.3847 52.3318 60.5716 51.6191 61.7264 50.8478C64.0368 49.3049 66.2612 47.4991 67.5429 46.4417L67.2248 46.056ZM55.1927 53.224V52.724C54.7026 52.724 54.3386 52.5587 54.0983 52.3184C53.8568 52.0769 53.7087 51.7282 53.7087 51.304H53.2087H52.7087C52.7087 51.9678 52.9447 52.5791 53.3912 53.0256C53.8389 53.4733 54.4669 53.724 55.1927 53.724V53.224ZM53.2087 51.304H53.7087C53.7087 50.6368 54.0084 49.7866 54.5823 48.8565C55.1499 47.9365 55.9579 46.9837 56.9052 46.1218C58.8194 44.3803 61.1989 43.1 63.1927 43.1V42.6V42.1C60.8346 42.1 58.2221 43.5717 56.2323 45.3822C55.2276 46.2963 54.3556 47.3195 53.7312 48.3315C53.1131 49.3334 52.7087 50.3712 52.7087 51.304H53.2087ZM63.1927 42.6V43.1C64.2146 43.1 65.2232 43.4958 65.9509 44.3355L66.3288 44.008L66.7066 43.6805C65.7703 42.6002 64.4749 42.1 63.1927 42.1V42.6ZM66.3288 44.008L65.8544 44.1661L65.9824 44.5501L66.4568 44.392L66.9311 44.2339L66.8031 43.8499L66.3288 44.008ZM66.4568 44.392H65.9568C65.9568 44.4359 65.9246 44.468 65.8808 44.468V44.968V45.468C66.4769 45.468 66.9568 44.9881 66.9568 44.392H66.4568ZM65.8808 44.968V44.468C65.8895 44.468 65.8921 44.469 65.89 44.4685C65.8883 44.4681 65.8848 44.467 65.8804 44.4648C65.8762 44.4627 65.8715 44.4597 65.8666 44.4555C65.8619 44.4514 65.8556 44.445 65.8488 44.4346L65.4328 44.712L65.0167 44.9894C65.2488 45.3375 65.6071 45.468 65.8808 45.468V44.968ZM65.4328 44.712L65.8027 44.3757C65.0589 43.5575 64.0876 43.188 63.0648 43.188V43.688V44.188C63.8339 44.188 64.5266 44.4585 65.0628 45.0483L65.4328 44.712ZM63.0648 43.688V43.188C62.0403 43.188 60.9533 43.5536 59.921 44.1025C58.8832 44.6543 57.8668 45.4094 56.9739 46.2323C56.0812 47.0551 55.2991 47.9576 54.7361 48.8131C54.1865 49.6483 53.7967 50.5117 53.7967 51.24H54.2967H54.7967C54.7967 50.8163 55.047 50.1597 55.5714 49.3629C56.0824 48.5864 56.8083 47.7449 57.6516 46.9677C58.4947 46.1906 59.4423 45.4897 60.3905 44.9855C61.3442 44.4784 62.2652 44.188 63.0648 44.188V43.688ZM54.2967 51.24H53.7967C53.7967 52.0281 54.4686 52.7 55.2567 52.7V52.2V51.7C55.0209 51.7 54.7967 51.4759 54.7967 51.24H54.2967ZM55.2567 52.2V52.7C55.7155 52.7 56.2419 52.5609 56.7911 52.3483C57.3479 52.1326 57.9651 51.8264 58.6162 51.4596C59.9186 50.7259 61.3925 49.729 62.8474 48.668C65.759 46.5446 68.6345 44.1348 69.9821 42.9796L69.6568 42.6L69.3314 42.2204C67.991 43.3692 65.1385 45.7594 62.2581 47.86C60.817 48.911 59.3789 49.8821 58.1253 50.5884C57.4984 50.9416 56.9266 51.2234 56.4299 51.4157C55.9256 51.6111 55.534 51.7 55.2567 51.7V52.2ZM69.6568 42.6L69.8804 43.0472C69.9491 43.0128 69.9893 42.9933 70.0243 42.9802C70.0573 42.9678 70.0587 42.972 70.0408 42.972V42.472V41.972C69.7718 41.972 69.5321 42.1033 69.4331 42.1528L69.6568 42.6ZM70.0408 42.472V42.972C70.0037 42.972 69.9928 42.9617 70.0098 42.9705C70.0245 42.9781 70.0473 42.9937 70.0712 43.0176C70.0951 43.0415 70.1107 43.0643 70.1183 43.079C70.127 43.096 70.1168 43.085 70.1168 43.048H70.6168H71.1168C71.1168 42.7336 70.9375 42.4697 70.7783 42.3104C70.6191 42.1512 70.3552 41.972 70.0408 41.972V42.472ZM70.6168 43.048L70.1525 42.8623L70.0245 43.1823L70.4888 43.368L70.953 43.5537L71.081 43.2337L70.6168 43.048ZM70.4888 43.368L70.0791 43.0813C68.9671 44.6699 67.8174 46.257 66.9515 47.657C66.5175 48.3587 66.1455 49.028 65.8808 49.6407C65.6191 50.2463 65.4448 50.8359 65.4448 51.368H65.9448H66.4448C66.4448 51.0361 66.5584 50.5937 66.7987 50.0373C67.0361 49.488 67.38 48.8653 67.802 48.183C68.6481 46.815 69.7704 45.2661 70.8984 43.6547L70.4888 43.368ZM65.9448 51.368H65.4448C65.4448 51.8081 65.5656 52.2131 65.8395 52.5131C66.118 52.8182 66.5015 52.956 66.9048 52.956V52.456V51.956C66.732 51.956 66.6355 51.9018 66.578 51.8389C66.5159 51.7709 66.4448 51.6319 66.4448 51.368H65.9448ZM66.9048 52.456V52.956C67.3498 52.956 67.8799 52.8388 68.4481 52.6556C69.0236 52.4702 69.6712 52.2061 70.3618 51.8882C71.7432 51.2523 73.3273 50.3871 74.9018 49.4632C78.0521 47.6148 81.1993 45.5113 82.6783 44.4825L82.3928 44.072L82.1072 43.6615C80.6422 44.6807 77.5174 46.7692 74.3957 48.6008C72.8342 49.5169 71.2823 50.3637 69.9437 50.9798C69.2743 51.2879 68.6659 51.5348 68.1414 51.7039C67.6096 51.8752 67.1957 51.956 66.9048 51.956V52.456ZM82.3928 44.072L82.6701 44.488C82.7207 44.4543 82.7441 44.4492 82.7492 44.4481C82.7608 44.4455 82.7732 44.444 82.8408 44.444V43.944V43.444C82.7803 43.444 82.6647 43.4425 82.5323 43.4719C82.3934 43.5028 82.2568 43.5617 82.1154 43.656L82.3928 44.072ZM82.8408 43.944V44.444C82.7864 44.444 82.7452 44.4345 82.7248 44.429C82.7019 44.4228 82.6852 44.4162 82.6759 44.4122C82.666 44.408 82.6592 44.4044 82.6556 44.4025C82.6518 44.4004 82.6497 44.3991 82.6493 44.3988C82.6487 44.3984 82.6513 44.4001 82.6561 44.404C82.6609 44.4078 82.6661 44.4125 82.6712 44.4176C82.6831 44.4294 82.6855 44.435 82.6827 44.4298C82.6806 44.426 82.6608 44.39 82.6608 44.328H83.1608H83.6608C83.6608 44.0284 83.4778 43.8099 83.3783 43.7104C83.3179 43.65 83.2516 43.5968 83.1862 43.5552C83.1538 43.5345 83.1143 43.5121 83.0698 43.4931C83.0382 43.4795 82.9517 43.444 82.8408 43.444V43.944ZM83.1608 44.328H82.6608C82.6608 44.3179 82.6621 44.3092 82.6637 44.3027C82.6652 44.2965 82.6666 44.2943 82.6655 44.2964C82.663 44.3015 82.6508 44.3229 82.6152 44.3584L82.9688 44.712L83.3223 45.0656C83.5048 44.8831 83.6608 44.6354 83.6608 44.328H83.1608ZM82.9688 44.712L82.6814 44.3028C81.1807 45.3565 78.0581 47.507 74.8362 49.3925C73.2247 50.3355 71.5977 51.2067 70.1421 51.8406C68.6689 52.4822 67.4342 52.852 66.5848 52.852V53.352V53.852C67.6553 53.852 69.0526 53.4058 70.5414 52.7574C72.0478 52.1013 73.7128 51.2085 75.3413 50.2555C78.5994 48.349 81.7488 46.1795 83.2561 45.1212L82.9688 44.712ZM85.4768 54.056L85.734 53.6273L85.734 53.6273L85.4768 54.056ZM87.5888 44.008L88.036 43.7844L88.0076 43.7277L87.9661 43.6799L87.5888 44.008ZM86.3088 42.536L86.6861 42.2079L86.3771 41.8526L86.0039 42.1397L86.3088 42.536ZM82.9808 44.648L83.1877 45.1032L83.2297 45.0841L83.2675 45.0576L82.9808 44.648ZM82.5968 43.944L82.3194 43.528L82.3194 43.528L82.5968 43.944ZM85.7968 41.512L86.1057 41.9052L86.2968 41.755V41.512H85.7968ZM88.8048 40.296L89.1889 40.6162L89.1952 40.6083L88.8048 40.296ZM87.2048 41.832L86.8847 41.4479L86.4912 41.7758L86.8285 42.1613L87.2048 41.832ZM88.5488 43.368L88.9488 43.068L88.9374 43.0529L88.925 43.0387L88.5488 43.368ZM86.1168 53.096L86.3941 52.68L86.3842 52.6734L86.374 52.6673L86.1168 53.096ZM104.869 44.072L104.645 43.6248L104.623 43.6357L104.603 43.6487L104.869 44.072ZM105.573 44.072L105.126 44.2956L105.162 44.3682L105.219 44.4256L105.573 44.072ZM105.381 44.712L105.124 44.2833L105.114 44.2887L105.106 44.2945L105.381 44.712ZM86.6288 54.312V53.812C86.2213 53.812 85.9424 53.7523 85.734 53.6273L85.4768 54.056L85.2195 54.4847C85.6511 54.7437 86.1402 54.812 86.6288 54.812V54.312ZM85.4768 54.056L85.734 53.6273C85.2833 53.3568 85.0807 52.9068 85.0807 52.328H84.5807H84.0807C84.0807 53.1572 84.3902 53.9872 85.2195 54.4847L85.4768 54.056ZM84.5807 52.328H85.0807C85.0807 51.8164 85.2484 51.1955 85.5337 50.4958C85.8166 49.8022 86.197 49.073 86.5884 48.3501C86.9743 47.6374 87.3768 46.9205 87.6781 46.2881C87.9704 45.6747 88.2168 45.0456 88.2168 44.52H87.7168H87.2168C87.2168 44.7944 87.0711 45.2373 86.7754 45.8579C86.4887 46.4595 86.1072 47.1386 85.7091 47.8739C85.3165 48.599 84.9129 49.3698 84.6078 50.1182C84.3051 50.8605 84.0807 51.6236 84.0807 52.328H84.5807ZM87.7168 44.52H88.2168C88.2168 44.2285 88.1234 43.9592 88.036 43.7844L87.5888 44.008L87.1415 44.2316C87.1595 44.2675 87.1794 44.3167 87.1944 44.3716C87.2094 44.4268 87.2168 44.4778 87.2168 44.52H87.7168ZM87.5888 44.008L87.9661 43.6799L86.6861 42.2079L86.3088 42.536L85.9314 42.8641L87.2114 44.3361L87.5888 44.008ZM86.3088 42.536L86.0039 42.1397C85.6167 42.4375 85.133 42.7256 84.5582 43.0657C83.9922 43.4005 83.3521 43.7777 82.694 44.2384L82.9808 44.648L83.2675 45.0576C83.8894 44.6223 84.4973 44.2635 85.0673 43.9263C85.6285 43.5944 86.1688 43.2745 86.6136 42.9323L86.3088 42.536ZM82.9808 44.648L82.7738 44.1928C82.6429 44.2523 82.601 44.2434 82.619 44.2451C82.6548 44.2483 82.7083 44.2719 82.7464 44.317C82.761 44.3342 82.7683 44.3488 82.7715 44.356C82.7747 44.3632 82.7756 44.3672 82.7756 44.3675C82.7757 44.368 82.7759 44.3687 82.7761 44.3709C82.7762 44.3722 82.7764 44.3743 82.7765 44.3777C82.7766 44.3793 82.7766 44.3813 82.7767 44.3837C82.7767 44.3849 82.7767 44.3862 82.7767 44.3875C82.7767 44.3882 82.7767 44.389 82.7767 44.3897C82.7767 44.3901 82.7767 44.3904 82.7767 44.3908C82.7767 44.391 82.7767 44.3913 82.7767 44.3914C82.7767 44.3917 82.7767 44.392 82.2767 44.392C81.7767 44.392 81.7768 44.3923 81.7768 44.3926C81.7768 44.3927 81.7768 44.393 81.7768 44.3932C81.7768 44.3936 81.7768 44.3941 81.7768 44.3945C81.7768 44.3954 81.7768 44.3963 81.7768 44.3973C81.7768 44.3992 81.7768 44.4013 81.7769 44.4036C81.777 44.4081 81.7771 44.4133 81.7774 44.4191C81.7778 44.4307 81.7787 44.445 81.7802 44.4614C81.7831 44.4938 81.7888 44.537 81.7999 44.5865C81.8208 44.6797 81.8681 44.8271 81.9831 44.963C82.1092 45.1121 82.2947 45.2197 82.5285 45.2409C82.7445 45.2606 82.9666 45.2037 83.1877 45.1032L82.9808 44.648ZM82.2767 44.392H82.7767C82.7767 44.4398 82.7657 44.4673 82.7648 44.4696C82.7631 44.474 82.7648 44.4684 82.7744 44.4547C82.7941 44.4266 82.8289 44.3901 82.8741 44.36L82.5968 43.944L82.3194 43.528C82.1726 43.6259 82.0474 43.7494 81.9551 43.8813C81.8717 44.0004 81.7767 44.1816 81.7767 44.392H82.2767ZM82.5968 43.944L82.8741 44.36C84.2397 43.4496 85.2294 42.5937 86.1057 41.9052L85.7968 41.512L85.4878 41.1188C84.5721 41.8383 83.6418 42.6464 82.3194 43.528L82.5968 43.944ZM85.7968 41.512H86.2968V41.32H85.7968H85.2968V41.512H85.7968ZM85.7968 41.32H86.2968C86.2968 41.1529 86.3697 40.9346 86.5439 40.6772C86.7149 40.4243 86.9602 40.169 87.2414 39.939C87.5216 39.7097 87.8233 39.5172 88.0953 39.3842C88.3818 39.2442 88.5833 39.196 88.6768 39.196V38.696V38.196C88.3542 38.196 87.9877 38.3238 87.6562 38.4858C87.3102 38.6548 86.9439 38.8903 86.6081 39.165C86.2733 39.439 85.9546 39.7637 85.7156 40.1168C85.4798 40.4654 85.2968 40.8791 85.2968 41.32H85.7968ZM88.6768 38.696V39.196C88.8051 39.196 88.8339 39.231 88.8256 39.2234C88.8177 39.2161 88.8168 39.2063 88.8168 39.208H89.3168H89.8168C89.8168 38.9537 89.7198 38.6879 89.5039 38.4886C89.2876 38.289 88.9964 38.196 88.6768 38.196V38.696ZM89.3168 39.208H88.8168C88.8168 39.2527 88.7929 39.3616 88.7095 39.5284C88.6318 39.6839 88.5241 39.8464 88.4143 39.9837L88.8048 40.296L89.1952 40.6083C89.3414 40.4256 89.4897 40.2041 89.604 39.9756C89.7126 39.7584 89.8168 39.4833 89.8168 39.208H89.3168ZM88.8048 40.296L88.4206 39.9759C88.126 40.3294 87.638 40.8201 86.8847 41.4479L87.2048 41.832L87.5248 42.2161C88.3075 41.5639 88.8435 41.0306 89.1889 40.6161L88.8048 40.296ZM87.2048 41.832L86.8285 42.1613L88.1725 43.6973L88.5488 43.368L88.925 43.0387L87.581 41.5027L87.2048 41.832ZM88.5488 43.368L88.1488 43.668C88.2406 43.7904 88.3048 44.0371 88.3048 44.392H88.8048H89.3048C89.3048 43.9789 89.2409 43.4576 88.9488 43.068L88.5488 43.368ZM88.8048 44.392H88.3048C88.3048 44.8499 88.1408 45.4309 87.854 46.1119C87.5705 46.7849 87.1896 47.505 86.7965 48.2349C86.4085 48.9555 86.0061 49.6902 85.7032 50.3599C85.4064 51.0161 85.1688 51.6847 85.1688 52.264H85.6688H86.1688C86.1688 51.9153 86.3231 51.4159 86.6143 50.7721C86.8994 50.1418 87.281 49.4445 87.677 48.709C88.0679 47.983 88.471 47.2231 88.7755 46.5001C89.0767 45.7851 89.3048 45.0541 89.3048 44.392H88.8048ZM85.6688 52.264H85.1688C85.1688 52.5106 85.2098 52.7573 85.3309 52.9859C85.4537 53.2181 85.638 53.3918 85.8595 53.5247L86.1168 53.096L86.374 52.6673C86.2755 52.6082 86.2358 52.5579 86.2146 52.5181C86.1917 52.4747 86.1688 52.4014 86.1688 52.264H85.6688ZM86.1168 53.096L85.8394 53.512C86.1318 53.707 86.4906 53.788 86.8208 53.788V53.288V52.788C86.6389 52.788 86.4857 52.741 86.3941 52.68L86.1168 53.096ZM86.8208 53.288V53.788C87.3599 53.788 88.0116 53.6486 88.7196 53.4269C89.4348 53.2029 90.2396 52.8842 91.0954 52.5027C92.8071 51.7394 94.7527 50.7107 96.6426 49.6434C100.423 47.5081 104.02 45.1963 105.135 44.4953L104.869 44.072L104.603 43.6487C103.478 44.3557 99.9061 46.6519 96.1509 48.7726C94.2728 49.8333 92.3584 50.8446 90.6881 51.5893C89.8529 51.9618 89.0862 52.2641 88.4207 52.4726C87.7479 52.6834 87.2096 52.788 86.8208 52.788V53.288ZM104.869 44.072L105.092 44.5192C105.161 44.4848 105.201 44.4653 105.236 44.4522C105.269 44.4398 105.271 44.444 105.253 44.444V43.944V43.444C104.984 43.444 104.744 43.5753 104.645 43.6248L104.869 44.072ZM105.253 43.944V44.444C105.288 44.444 105.303 44.4442 105.316 44.445C105.327 44.4457 105.318 44.4461 105.299 44.4408C105.279 44.4348 105.243 44.4212 105.206 44.3918C105.167 44.3613 105.141 44.3258 105.126 44.2956L105.573 44.072L106.02 43.8484C105.916 43.641 105.744 43.5278 105.574 43.4792C105.438 43.4404 105.3 43.444 105.253 43.444V43.944ZM105.573 44.072L105.219 44.4256C105.179 44.3849 105.163 44.3451 105.157 44.3225C105.151 44.2983 105.152 44.2805 105.154 44.2699C105.157 44.2582 105.161 44.2533 105.16 44.2545C105.159 44.2555 105.15 44.2671 105.124 44.2833L105.381 44.712L105.638 45.1407C106.165 44.8243 106.34 44.1321 105.926 43.7184L105.573 44.072ZM105.381 44.712L105.106 44.2945C103.693 45.2254 100.14 47.6157 96.3798 49.7744C94.4996 50.8539 92.578 51.8696 90.8545 52.614C89.1123 53.3665 87.6381 53.812 86.6288 53.812V54.312V54.812C87.8594 54.812 89.4972 54.2895 91.251 53.532C93.0235 52.7664 94.9819 51.7301 96.8777 50.6416C100.67 48.4643 104.252 46.0546 105.656 45.1295L105.381 44.712ZM95.6262 52.904H95.1262V52.9232L95.1277 52.9423L95.6262 52.904ZM96.6502 51.88L96.2967 52.2336L96.3149 52.2518L96.335 52.2681L96.6502 51.88ZM101.194 53.096V53.596H101.472L101.619 53.3597L101.194 53.096ZM108.874 41.128V40.628H108.855L108.836 40.6294L108.874 41.128ZM108.938 42.28V41.78H108.917L108.896 41.7818L108.938 42.28ZM102.538 52.968L102.093 52.7414L101.647 53.6183L102.618 53.4616L102.538 52.968ZM121.29 44.072L121.105 43.6078L121.06 43.6257L121.019 43.6518L121.29 44.072ZM121.61 43.944V43.444H121.514L121.425 43.4798L121.61 43.944ZM121.93 44.072L121.577 44.4256L121.577 44.4256L121.93 44.072ZM121.738 44.712L121.515 44.2648L121.487 44.2784L121.462 44.2952L121.738 44.712ZM101.834 54.184L101.784 53.6865L101.56 53.7091L101.429 53.8913L101.834 54.184ZM100.234 54.248L100.554 54.6321L101.534 53.8157L100.261 53.7487L100.234 54.248ZM96.9062 53.416L97.1415 52.9748L95.9063 52.316L96.4447 53.6083L96.9062 53.416ZM98.8902 55.784V55.284C97.4561 55.284 96.2304 54.239 96.1248 52.8657L95.6262 52.904L95.1277 52.9423C95.2781 54.897 96.9964 56.284 98.8902 56.284V55.784ZM95.6262 52.904H96.1262V52.776H95.6262H95.1262V52.904H95.6262ZM95.6262 52.776H96.1262C96.1262 52.4541 96.1943 52.2918 96.2394 52.2257C96.2768 52.1708 96.2895 52.188 96.2662 52.188V51.688V51.188C95.923 51.188 95.6157 51.3652 95.4131 51.6623C95.2182 51.9482 95.1262 52.3299 95.1262 52.776H95.6262ZM96.2662 51.688V52.188C96.2561 52.188 96.2474 52.1867 96.241 52.1851C96.2347 52.1835 96.2325 52.1822 96.2346 52.1832C96.2398 52.1858 96.2611 52.198 96.2967 52.2336L96.6502 51.88L97.0038 51.5264C96.8213 51.3439 96.5736 51.188 96.2662 51.188V51.688ZM96.6502 51.88L96.335 52.2681C97.4713 53.1914 98.9374 53.596 100.554 53.596V53.096V52.596C99.0991 52.596 97.8772 52.2326 96.9655 51.4919L96.6502 51.88ZM100.554 53.096V53.596H101.194V53.096V52.596H100.554V53.096ZM101.194 53.096L101.619 53.3597C102.228 52.3787 102.695 51.1423 103.128 49.8758C103.568 48.5894 103.973 47.2744 104.466 46.051C105.462 43.5808 106.703 41.7943 108.912 41.6266L108.874 41.128L108.836 40.6294C105.989 40.8457 104.542 43.1872 103.539 45.677C103.032 46.9335 102.608 48.3066 102.182 49.5522C101.749 50.8177 101.313 51.9573 100.769 52.8323L101.194 53.096ZM108.874 41.128V41.628H108.938V41.128V40.628H108.874V41.128ZM108.938 41.128V41.628C108.979 41.628 108.998 41.6346 109.003 41.6368C109.008 41.6386 109.006 41.6385 109.003 41.6351C108.996 41.6278 109.014 41.6412 109.014 41.704H109.514H110.014C110.014 41.4468 109.936 41.1722 109.738 40.9569C109.533 40.7349 109.247 40.628 108.938 40.628V41.128ZM109.514 41.704H109.014C109.014 41.707 109.013 41.7172 109.008 41.7311C109.003 41.7446 108.997 41.7554 108.991 41.7626C108.985 41.7692 108.98 41.7721 108.977 41.7739C108.974 41.7752 108.963 41.78 108.938 41.78V42.28V42.78C109.668 42.78 110.014 42.1611 110.014 41.704H109.514ZM108.938 42.28L108.896 41.7818C107.791 41.8754 106.927 42.4325 106.238 43.2262C105.557 44.0096 105.031 45.041 104.58 46.1379C104.128 47.236 103.735 48.4454 103.344 49.5881C102.949 50.7429 102.555 51.8323 102.093 52.7414L102.538 52.968L102.984 53.1946C103.482 52.2157 103.896 51.0651 104.29 49.9119C104.689 48.7466 105.068 47.58 105.505 46.5181C105.942 45.455 106.419 44.5424 106.993 43.8818C107.558 43.2315 108.197 42.8446 108.98 42.7782L108.938 42.28ZM102.538 52.968L102.618 53.4616C105.673 52.9689 109.201 51.4996 112.551 49.7808C115.908 48.0577 119.124 46.0634 121.561 44.4922L121.29 44.072L121.019 43.6518C118.592 45.2166 115.408 47.1903 112.094 48.8912C108.771 50.5964 105.356 52.0071 102.459 52.4744L102.538 52.968ZM121.29 44.072L121.476 44.5362L121.796 44.4082L121.61 43.944L121.425 43.4798L121.105 43.6078L121.29 44.072ZM121.61 43.944V44.444C121.601 44.444 121.596 44.4429 121.595 44.4427C121.594 44.4425 121.595 44.4427 121.597 44.4436C121.599 44.4445 121.6 44.4449 121.598 44.4438C121.597 44.4431 121.589 44.4379 121.577 44.4256L121.93 44.072L122.284 43.7184C122.132 43.567 121.88 43.444 121.61 43.444V43.944ZM121.93 44.072L121.577 44.4256C121.595 44.4434 121.599 44.4485 121.602 44.4518C121.604 44.4535 121.598 44.4468 121.59 44.4332C121.581 44.4187 121.572 44.3998 121.566 44.3778C121.56 44.356 121.558 44.3385 121.558 44.328H122.058H122.558C122.558 43.9802 122.353 43.7877 122.284 43.7184L121.93 44.072ZM122.058 44.328H121.558C121.558 44.3176 121.56 44.2984 121.567 44.2749C121.575 44.2507 121.585 44.232 121.594 44.22C121.602 44.2092 121.605 44.2093 121.593 44.2183C121.581 44.2275 121.557 44.2436 121.515 44.2648L121.738 44.712L121.962 45.1592C122.13 45.0754 122.283 44.9681 122.394 44.82C122.515 44.6591 122.558 44.4866 122.558 44.328H122.058ZM121.738 44.712L121.462 44.2952C118.903 45.9905 115.529 48.1862 112.01 50.0375C108.479 51.8945 104.853 53.3765 101.784 53.6865L101.834 54.184L101.884 54.6815C105.152 54.3515 108.918 52.7935 112.475 50.9225C116.043 49.0458 119.453 46.8255 122.014 45.1288L121.738 44.712ZM101.834 54.184L101.429 53.8913C100.692 54.9115 99.7557 55.284 98.8902 55.284V55.784V56.284C100.073 56.284 101.312 55.7605 102.24 54.4767L101.834 54.184ZM98.9542 54.696V55.196C99.5004 55.196 100.067 55.0382 100.554 54.6321L100.234 54.248L99.9142 53.8639C99.6335 54.0978 99.3041 54.196 98.9542 54.196V54.696ZM100.234 54.248L100.261 53.7487C99.0934 53.6873 98.0185 53.4426 97.1415 52.9748L96.9062 53.416L96.671 53.8572C97.714 54.4134 98.9431 54.6807 100.208 54.7473L100.234 54.248ZM96.9062 53.416L96.4447 53.6083C96.8547 54.5922 97.9544 55.196 98.9542 55.196V54.696V54.196C98.2901 54.196 97.5978 53.7758 97.3678 53.2237L96.9062 53.416ZM117.44 53.992L117.625 53.5278L117.607 53.5206L117.589 53.5148L117.44 53.992ZM117.12 48.488L116.692 48.2285L116.688 48.2361L117.12 48.488ZM122.368 43.24L122.246 42.7549L122.173 42.7732L122.109 42.8122L122.368 43.24ZM122.624 43.176V42.676H122.562L122.502 42.6909L122.624 43.176ZM122.944 44.2L123.209 44.624L123.215 44.6201L123.221 44.616L122.944 44.2ZM118.784 48.04L119.174 48.3523L119.183 48.3409L119.192 48.329L118.784 48.04ZM118.336 53.096L118.3 53.5947L118.318 53.596H118.336V53.096ZM125.312 47.912L125.739 48.172L125.95 47.825L125.654 47.5472L125.312 47.912ZM126.336 42.728L126.112 43.1752L126.125 43.1818L126.139 43.1876L126.336 42.728ZM126.784 47.656L126.35 47.4079L126.075 47.8882L126.581 48.1129L126.784 47.656ZM140.416 44.072L140.682 44.4955L140.693 44.488L140.416 44.072ZM140.736 43.944V44.444H140.817L140.894 44.4183L140.736 43.944ZM141.12 44.328L140.766 43.9744L140.62 44.1209V44.328H141.12ZM140.864 44.712L141.132 45.1339L141.141 45.128L140.864 44.712ZM126.144 48.616L126.383 48.1771L125.996 47.9661L125.738 48.3233L126.144 48.616ZM125.888 46.888L125.558 47.2643L126.014 47.6632L126.32 47.1399L125.888 46.888ZM125.824 43.752L125.922 43.2617L125.873 43.252H125.824V43.752ZM118.4 54.12V53.62C118.067 53.62 117.843 53.6147 117.625 53.5278L117.44 53.992L117.254 54.4562C117.677 54.6253 118.092 54.62 118.4 54.62V54.12ZM117.44 53.992L117.589 53.5148C117.191 53.3905 116.959 53.1804 116.817 52.9339C116.667 52.6747 116.596 52.3381 116.596 51.944H116.096H115.596C115.596 52.4459 115.685 52.9733 115.951 53.4341C116.224 53.9076 116.664 54.2735 117.291 54.4692L117.44 53.992ZM116.096 51.944H116.596C116.596 50.8478 117.129 49.464 117.552 48.7399L117.12 48.488L116.688 48.2361C116.214 49.048 115.596 50.6082 115.596 51.944H116.096ZM117.12 48.488L117.547 48.7475C118.6 47.0129 120.274 45.0917 122.627 43.6677L122.368 43.24L122.109 42.8122C119.597 44.3323 117.815 46.3791 116.692 48.2285L117.12 48.488ZM122.368 43.24L122.489 43.7251L122.745 43.6611L122.624 43.176L122.502 42.6909L122.246 42.7549L122.368 43.24ZM122.624 43.176V43.676C122.613 43.676 122.632 43.6719 122.665 43.7082C122.68 43.7244 122.691 43.7416 122.697 43.7551C122.703 43.7697 122.7 43.7692 122.7 43.752H123.2H123.7C123.7 43.4707 123.568 43.2103 123.398 43.0278C123.224 42.8401 122.955 42.676 122.624 42.676V43.176ZM123.2 43.752H122.7C122.7 43.7727 122.698 43.7796 122.698 43.7778C122.699 43.7747 122.701 43.7665 122.707 43.7572C122.712 43.7482 122.715 43.7455 122.711 43.7494C122.706 43.7542 122.694 43.7658 122.666 43.784L122.944 44.2L123.221 44.616C123.358 44.5245 123.49 44.4067 123.581 44.2428C123.674 44.0756 123.7 43.9053 123.7 43.752H123.2ZM122.944 44.2L122.679 43.776C121.098 44.7642 119.509 46.1513 118.376 47.751L118.784 48.04L119.192 48.329C120.235 46.8567 121.718 45.5558 123.209 44.624L122.944 44.2ZM118.784 48.04L118.393 47.7277C118.107 48.0862 117.687 48.7624 117.339 49.5086C116.995 50.2441 116.684 51.1264 116.684 51.88H117.184H117.684C117.684 51.3536 117.916 50.6359 118.245 49.9314C118.569 49.2376 118.949 48.6338 119.174 48.3523L118.784 48.04ZM117.184 51.88H116.684C116.684 52.2789 116.754 52.7101 117.042 53.051C117.338 53.4008 117.779 53.5575 118.3 53.5947L118.336 53.096L118.371 52.5973C117.996 52.5705 117.861 52.4712 117.805 52.405C117.742 52.3299 117.684 52.1851 117.684 51.88H117.184ZM118.336 53.096V53.596H118.464V53.096V52.596H118.336V53.096ZM118.464 53.096V53.596C119.134 53.596 119.867 53.3163 120.567 52.931C121.278 52.5395 122.009 52.0084 122.689 51.4394C124.037 50.31 125.251 48.9735 125.739 48.172L125.312 47.912L124.885 47.652C124.477 48.3225 123.354 49.578 122.047 50.6726C121.398 51.2156 120.721 51.7045 120.085 52.055C119.437 52.4117 118.882 52.596 118.464 52.596V53.096ZM125.312 47.912L125.654 47.5472C124.735 46.6855 124.404 45.6674 124.404 44.84H123.904H123.404C123.404 45.9326 123.841 47.2185 124.97 48.2768L125.312 47.912ZM123.904 44.84H124.404C124.404 43.7134 125.056 43.1 125.632 43.1V42.6V42.1C124.287 42.1 123.404 43.4066 123.404 44.84H123.904ZM125.632 42.6V43.1C125.883 43.1 125.97 43.1042 126.112 43.1752L126.336 42.728L126.559 42.2808C126.189 42.0958 125.892 42.1 125.632 42.1V42.6ZM126.336 42.728L126.139 43.1876C126.803 43.4724 127.116 44.0865 127.116 44.84H127.616H128.116C128.116 43.8015 127.66 42.7516 126.533 42.2684L126.336 42.728ZM127.616 44.84H127.116C127.116 45.6283 126.83 46.5672 126.35 47.4079L126.784 47.656L127.218 47.9041C127.761 46.9528 128.116 45.8437 128.116 44.84H127.616ZM126.784 47.656L126.581 48.1129C127.238 48.4049 128.015 48.54 128.896 48.54V48.04V47.54C128.112 47.54 127.482 47.4191 126.987 47.1991L126.784 47.656ZM128.896 48.04V48.54C130.813 48.54 133.202 47.873 135.362 47.0513C137.53 46.226 139.529 45.2201 140.682 44.4953L140.416 44.072L140.15 43.6487C139.063 44.3319 137.125 45.31 135.006 46.1167C132.877 46.927 130.626 47.54 128.896 47.54V48.04ZM140.416 44.072L140.693 44.488C140.731 44.4628 140.756 44.4481 140.772 44.4399C140.787 44.4318 140.789 44.4318 140.782 44.4343C140.772 44.4375 140.758 44.4411 140.741 44.4429C140.728 44.4444 140.718 44.444 140.736 44.444V43.944V43.444C140.689 43.444 140.592 43.4436 140.466 43.4857C140.357 43.5217 140.251 43.5807 140.138 43.656L140.416 44.072ZM140.736 43.944L140.894 44.4183C140.757 44.464 140.657 44.4131 140.641 44.4043C140.622 44.3935 140.625 44.3905 140.64 44.4081C140.654 44.4251 140.656 44.4337 140.651 44.4213C140.649 44.4173 140.635 44.3834 140.631 44.3283C140.628 44.2872 140.622 44.1187 140.766 43.9744L141.12 44.328L141.473 44.6815C141.634 44.5213 141.634 44.3268 141.628 44.2527C141.621 44.1646 141.596 44.0907 141.577 44.0427C141.535 43.9423 141.474 43.8469 141.408 43.7679C141.342 43.6895 141.249 43.5985 141.13 43.5317C141.014 43.4669 140.811 43.392 140.578 43.4697L140.736 43.944ZM141.12 44.328H140.62C140.62 44.3177 140.621 44.3039 140.625 44.2886C140.63 44.2733 140.636 44.2618 140.64 44.255C140.647 44.2426 140.642 44.2592 140.586 44.296L140.864 44.712L141.141 45.128C141.427 44.9372 141.62 44.6708 141.62 44.328H141.12ZM140.864 44.712L140.595 44.2902C139.561 44.9483 137.586 46.055 135.357 46.9953C133.117 47.9407 130.681 48.692 128.704 48.692V49.192V49.692C130.887 49.692 133.474 48.8753 135.746 47.9167C138.03 46.953 140.054 45.8197 141.132 45.1338L140.864 44.712ZM128.704 49.192V48.692C127.805 48.692 126.996 48.5114 126.383 48.1771L126.144 48.616L125.904 49.0549C126.699 49.4886 127.683 49.692 128.704 49.692V49.192ZM126.144 48.616L125.738 48.3233C124.932 49.4403 123.7 50.7813 122.348 51.8381C120.977 52.9091 119.57 53.62 118.4 53.62V54.12V54.62C119.917 54.62 121.55 53.7309 122.964 52.6259C124.396 51.5067 125.692 50.0957 126.549 48.9087L126.144 48.616ZM125.888 46.888L126.32 47.1399C126.811 46.2981 126.964 45.5715 126.964 44.968H126.464H125.964C125.964 45.3885 125.861 45.9419 125.456 46.6361L125.888 46.888ZM126.464 44.968H126.964C126.964 44.5426 126.867 44.1656 126.697 43.8701C126.532 43.5841 126.268 43.331 125.922 43.2617L125.824 43.752L125.726 44.2423C125.699 44.237 125.756 44.2399 125.831 44.3699C125.9 44.4904 125.964 44.6894 125.964 44.968H126.464ZM125.824 43.752V43.252H125.696V43.752V44.252H125.824V43.752ZM125.696 43.752V43.252C125.263 43.252 124.926 43.4573 124.725 43.788C124.544 44.0844 124.492 44.4466 124.492 44.776H124.992H125.492C125.492 44.5294 125.535 44.3796 125.579 44.308C125.597 44.2782 125.61 44.2693 125.616 44.266C125.622 44.2629 125.643 44.252 125.696 44.252V43.752ZM124.992 44.776H124.492C124.492 45.209 124.607 45.6909 124.786 46.1203C124.964 46.5468 125.226 46.973 125.558 47.2643L125.888 46.888L126.217 46.5117C126.038 46.355 125.852 46.0772 125.709 45.7357C125.568 45.3971 125.492 45.047 125.492 44.776H124.992Z" fill="#149C88" mask="url(#path-1-outside-1_2014_80)"/>
</svg>
