<svg width="40" height="40" viewBox="0 0 40 40" fill="none" xmlns="http://www.w3.org/2000/svg">
<path d="M20.7667 37.9167C20.4834 37.9167 20.2001 37.9167 19.9167 37.9C10.5834 37.4833 2.78341 29.9667 2.13341 20.8C1.56674 12.9333 6.11674 5.58333 13.4501 2.5C15.5334 1.63333 16.6334 2.3 17.1001 2.78333C17.5667 3.25 18.2167 4.33333 17.3501 6.31667C16.5834 8.08333 16.2001 9.96667 16.2167 11.9C16.2501 19.2833 22.3834 25.55 29.8667 25.85C30.9501 25.9 32.0167 25.8167 33.0501 25.6333C35.2501 25.2333 36.1667 26.1167 36.5167 26.6833C36.8667 27.25 37.2667 28.4667 35.9334 30.2667C32.4001 35.1 26.7834 37.9167 20.7667 37.9167ZM4.61674 20.6167C5.18341 28.55 11.9501 35.05 20.0167 35.4C25.5001 35.6667 30.7001 33.1667 33.9001 28.8C34.1501 28.45 34.2667 28.2 34.3167 28.0667C34.1667 28.05 33.9001 28.0333 33.4834 28.1167C32.2667 28.3333 31.0001 28.4167 29.7501 28.3667C20.9501 28.0167 13.7501 20.6333 13.7001 11.9333C13.7001 9.63333 14.1501 7.41667 15.0667 5.33333C15.2334 4.96667 15.2667 4.71667 15.2834 4.58333C15.1334 4.58333 14.8667 4.61667 14.4334 4.8C8.08341 7.46667 4.15008 13.8333 4.61674 20.6167Z" fill="white"/>
</svg>
