<svg width="40" height="40" viewBox="0 0 40 40" fill="none" xmlns="http://www.w3.org/2000/svg">
<path d="M20 32.0833C13.3333 32.0833 7.91663 26.6667 7.91663 20C7.91663 13.3333 13.3333 7.91666 20 7.91666C26.6666 7.91666 32.0833 13.3333 32.0833 20C32.0833 26.6667 26.6666 32.0833 20 32.0833ZM20 10.4167C14.7166 10.4167 10.4166 14.7167 10.4166 20C10.4166 25.2833 14.7166 29.5833 20 29.5833C25.2833 29.5833 29.5833 25.2833 29.5833 20C29.5833 14.7167 25.2833 10.4167 20 10.4167Z" fill="#242A29"/>
<path d="M20 38.2667C19.0833 38.2667 18.3333 37.5833 18.3333 36.6667V36.5333C18.3333 35.6167 19.0833 34.8667 20 34.8667C20.9166 34.8667 21.6666 35.6167 21.6666 36.5333C21.6666 37.45 20.9166 38.2667 20 38.2667ZM31.9 33.5667C31.4666 33.5667 31.05 33.4 30.7166 33.0833L30.5 32.8667C29.85 32.2167 29.85 31.1667 30.5 30.5167C31.15 29.8667 32.2 29.8667 32.85 30.5167L33.0666 30.7333C33.7166 31.3833 33.7166 32.4333 33.0666 33.0833C32.75 33.4 32.3333 33.5667 31.9 33.5667ZM8.09996 33.5667C7.66663 33.5667 7.24996 33.4 6.91663 33.0833C6.26663 32.4333 6.26663 31.3833 6.91663 30.7333L7.13329 30.5167C7.78329 29.8667 8.83329 29.8667 9.48329 30.5167C10.1333 31.1667 10.1333 32.2167 9.48329 32.8667L9.26663 33.0833C8.94996 33.4 8.51663 33.5667 8.09996 33.5667ZM36.6666 21.6667H36.5333C35.6166 21.6667 34.8666 20.9167 34.8666 20C34.8666 19.0833 35.6166 18.3333 36.5333 18.3333C37.45 18.3333 38.2666 19.0833 38.2666 20C38.2666 20.9167 37.5833 21.6667 36.6666 21.6667ZM3.46663 21.6667H3.33329C2.41663 21.6667 1.66663 20.9167 1.66663 20C1.66663 19.0833 2.41663 18.3333 3.33329 18.3333C4.24996 18.3333 5.06663 19.0833 5.06663 20C5.06663 20.9167 4.38329 21.6667 3.46663 21.6667ZM31.6833 9.98333C31.25 9.98333 30.8333 9.81666 30.5 9.5C29.85 8.85 29.85 7.8 30.5 7.15L30.7166 6.93333C31.3666 6.28333 32.4166 6.28333 33.0666 6.93333C33.7166 7.58333 33.7166 8.63333 33.0666 9.28333L32.85 9.5C32.5333 9.81666 32.1166 9.98333 31.6833 9.98333ZM8.31663 9.98333C7.88329 9.98333 7.46663 9.81666 7.13329 9.5L6.91663 9.26666C6.26663 8.61666 6.26663 7.56666 6.91663 6.91666C7.56663 6.26666 8.61663 6.26666 9.26663 6.91666L9.48329 7.13333C10.1333 7.78333 10.1333 8.83333 9.48329 9.48333C9.16663 9.81666 8.73329 9.98333 8.31663 9.98333ZM20 5.06666C19.0833 5.06666 18.3333 4.38333 18.3333 3.46666V3.33333C18.3333 2.41666 19.0833 1.66666 20 1.66666C20.9166 1.66666 21.6666 2.41666 21.6666 3.33333C21.6666 4.25 20.9166 5.06666 20 5.06666Z" fill="#242A29"/>
</svg>
