<svg width="50" height="50" viewBox="0 0 50 50" fill="none" xmlns="http://www.w3.org/2000/svg">
<path d="M25.055 50H24.945C11.1905 50 0 38.8095 0 25.055V24.945C0 11.1905 11.1905 0 24.945 0H25.055C38.8095 0 50 11.1905 50 24.945V25.055C50 38.8095 38.8095 50 25.055 50ZM24.945 1.69245C12.123 1.69245 1.69245 12.123 1.69245 24.945V25.055C1.69245 37.877 12.123 48.3076 24.945 48.3076H25.055C37.877 48.3076 48.3076 37.877 48.3076 25.055V24.945C48.3076 12.123 37.877 1.69245 25.055 1.69245H24.945Z" fill="#149C88"/>
<path d="M9.99555 24.1749C10.0632 24.1411 10.131 24.1089 10.197 24.0785C11.3445 23.547 12.5072 23.0494 13.6682 22.5519C13.7308 22.5519 13.8357 22.4791 13.895 22.4554C13.9847 22.4165 14.0744 22.3792 14.1641 22.3403C14.3367 22.2658 14.5093 22.1931 14.6803 22.1186C15.0255 21.9713 15.3691 21.8241 15.7143 21.6769C16.4032 21.3824 17.092 21.0879 17.7808 20.7917C19.1585 20.2028 20.5378 19.6121 21.9155 19.0231C23.2931 18.4341 24.6725 17.8435 26.0501 17.2545C27.4278 16.6655 28.8071 16.0749 30.1848 15.4859C31.5624 14.8969 32.9418 14.3063 34.3195 13.7173C34.6258 13.5853 34.9575 13.389 35.2858 13.3314C35.5617 13.2823 35.8308 13.1876 36.1083 13.1351C36.6347 13.0352 37.2152 12.9946 37.7196 13.2129C37.8939 13.2891 38.0547 13.3957 38.1884 13.5294C38.8281 14.1624 38.7384 15.2016 38.603 16.0918C37.6603 22.2963 36.7176 28.5025 35.7732 34.707C35.6446 35.5583 35.4686 36.4926 34.7967 37.0308C34.228 37.486 33.419 37.5368 32.7167 37.3439C32.0143 37.1492 31.3949 36.7414 30.7873 36.3402C28.2672 34.6715 25.7455 33.0027 23.2254 31.334C22.6263 30.9379 21.9595 30.4201 21.9663 29.7008C21.9697 29.2675 22.2286 28.8816 22.4926 28.538C24.6826 25.6812 27.8424 23.718 30.1932 20.9931C30.525 20.6089 30.7856 19.915 30.3303 19.6933C30.0596 19.5613 29.7481 19.7407 29.501 19.9116C26.3937 22.0695 23.2881 24.2291 20.1807 26.3869C19.167 27.091 18.1041 27.8154 16.8822 27.988C15.7888 28.1437 14.6887 27.8391 13.631 27.5276C12.7441 27.267 11.8589 26.9996 10.9772 26.7237C10.5084 26.5782 10.0243 26.4208 9.66214 26.0908C9.29996 25.7607 9.09181 25.2056 9.31014 24.7656C9.44723 24.4897 9.71295 24.3154 9.9922 24.1732L9.99555 24.1749Z" fill="#242A29"/>
</svg>
