<svg width="50" height="50" viewBox="0 0 50 50" fill="none" xmlns="http://www.w3.org/2000/svg">
<path d="M25.055 50H24.945C11.1905 50 0 38.8095 0 25.055V24.945C0 11.1905 11.1905 0 24.945 0H25.055C38.8095 0 50 11.1905 50 24.945V25.055C50 38.8095 38.8095 50 25.055 50ZM24.945 1.69245C12.123 1.69245 1.69245 12.123 1.69245 24.945V25.055C1.69245 37.877 12.123 48.3076 24.945 48.3076H25.055C37.877 48.3076 48.3076 37.877 48.3076 25.055V24.945C48.3076 12.123 37.877 1.69245 25.055 1.69245H24.945Z" fill="#149C88"/>
<path d="M9.99567 24.1749C10.0634 24.1411 10.1311 24.1089 10.1971 24.0785C11.3446 23.547 12.5073 23.0494 13.6683 22.5519C13.7309 22.5519 13.8358 22.4791 13.8951 22.4554C13.9848 22.4165 14.0745 22.3792 14.1642 22.3403C14.3368 22.2658 14.5095 22.1931 14.6804 22.1186C15.0257 21.9713 15.3692 21.8241 15.7145 21.6769C16.4033 21.3824 17.0921 21.0879 17.7809 20.7917C19.1586 20.2028 20.538 19.6121 21.9156 19.0231C23.2933 18.4341 24.6726 17.8435 26.0503 17.2545C27.4279 16.6655 28.8072 16.0749 30.1849 15.4859C31.5625 14.8969 32.9419 14.3063 34.3196 13.7173C34.6259 13.5853 34.9576 13.389 35.286 13.3314C35.5618 13.2823 35.8309 13.1876 36.1085 13.1351C36.6348 13.0352 37.2153 12.9946 37.7197 13.2129C37.894 13.2891 38.0548 13.3957 38.1885 13.5294C38.8282 14.1624 38.7385 15.2016 38.6031 16.0918C37.6604 22.2963 36.7178 28.5025 35.7734 34.707C35.6447 35.5583 35.4687 36.4926 34.7968 37.0308C34.2282 37.486 33.4192 37.5368 32.7168 37.3439C32.0144 37.1492 31.395 36.7414 30.7874 36.3402C28.2674 34.6715 25.7456 33.0027 23.2256 31.334C22.6264 30.9379 21.9596 30.4201 21.9664 29.7008C21.9698 29.2675 22.2287 28.8816 22.4927 28.538C24.6828 25.6812 27.8426 23.718 30.1934 20.9931C30.5251 20.6089 30.7857 19.915 30.3305 19.6933C30.0597 19.5613 29.7482 19.7407 29.5011 19.9116C26.3938 22.0695 23.2882 24.2291 20.1809 26.3869C19.1671 27.091 18.1042 27.8154 16.8823 27.988C15.789 28.1437 14.6889 27.8391 13.6311 27.5276C12.7442 27.267 11.8591 26.9996 10.9773 26.7237C10.5085 26.5782 10.0244 26.4208 9.66226 26.0908C9.30008 25.7607 9.09194 25.2056 9.31026 24.7656C9.44735 24.4897 9.71307 24.3154 9.99232 24.1732L9.99567 24.1749Z" fill="white"/>
</svg>
