<svg width="50" height="50" viewBox="0 0 50 50" fill="none" xmlns="http://www.w3.org/2000/svg">
<path d="M25.055 50H24.945C11.1905 50 0 38.8095 0 25.055V24.945C0 11.1905 11.1905 0 24.945 0H25.055C38.8095 0 50 11.1905 50 24.945V25.055C50 38.8095 38.8095 50 25.055 50ZM24.945 1.69245C12.123 1.69245 1.69245 12.123 1.69245 24.945V25.055C1.69245 37.877 12.123 48.3076 24.945 48.3076H25.055C37.877 48.3076 48.3076 37.877 48.3076 25.055V24.945C48.3076 12.123 37.877 1.69245 25.055 1.69245H24.945Z" fill="#149C88"/>
<path d="M29.7093 32.0651C23.5268 32.0651 18.4968 27.0334 18.4951 20.8509C18.4968 19.2837 19.7729 18.0093 21.3367 18.0093C21.4975 18.0093 21.6566 18.0228 21.8089 18.0499C22.144 18.1057 22.4622 18.2191 22.755 18.3901C22.7973 18.4155 22.8261 18.4561 22.8329 18.5035L23.4861 22.6212C23.4946 22.6703 23.4794 22.7177 23.4472 22.7532C23.0867 23.1526 22.6264 23.4404 22.1136 23.5842L21.8665 23.6536L21.9596 23.8922C22.8024 26.0383 24.5185 27.7527 26.6663 28.5989L26.9049 28.6937L26.9743 28.4466C27.1181 27.9338 27.4059 27.4735 27.8053 27.113C27.834 27.0859 27.873 27.0723 27.9119 27.0723C27.9204 27.0723 27.9288 27.0724 27.939 27.074L32.0567 27.7273C32.1058 27.7358 32.1464 27.7629 32.1718 27.8052C32.341 28.098 32.4544 28.4178 32.512 28.7529C32.5391 28.9019 32.5509 29.0593 32.5509 29.2234C32.5509 30.789 31.2765 32.0634 29.7093 32.0651Z" fill="white"/>
<path d="M40.6731 23.6435C40.3397 19.8761 38.6134 16.3812 35.8124 13.8036C32.9945 11.2108 29.3388 9.78235 25.5155 9.78235C17.1244 9.78235 10.2971 16.6097 10.2971 25.0008C10.2971 27.8171 11.0739 30.5605 12.5446 32.9503L9.26465 40.2109L19.7663 39.0922C21.5924 39.8402 23.5252 40.2193 25.5138 40.2193C26.0368 40.2193 26.5733 40.1922 27.1115 40.1364C27.5854 40.0856 28.0644 40.0112 28.5349 39.9164C35.5619 38.4964 40.6917 32.2597 40.7323 25.0821V25.0008C40.7323 24.5439 40.712 24.0869 40.6714 23.6452L40.6731 23.6435ZM20.1708 35.9053L14.3606 36.5247L16.0954 32.6812L15.7484 32.2158C15.723 32.1819 15.6977 32.148 15.6689 32.1091C14.1626 30.0291 13.3671 27.5717 13.3671 25.0025C13.3671 18.3038 18.8168 12.8541 25.5155 12.8541C31.7911 12.8541 37.1105 17.7504 37.6233 24.0006C37.6504 24.3357 37.6656 24.6725 37.6656 25.0042C37.6656 25.099 37.6639 25.1921 37.6622 25.2919C37.5336 30.8956 33.619 35.6548 28.1422 36.8666C27.7242 36.9597 27.296 37.0308 26.8695 37.0765C26.4261 37.1273 25.9708 37.1526 25.5189 37.1526C23.9094 37.1526 22.3456 36.8412 20.8681 36.2252C20.7039 36.1592 20.5431 36.0881 20.3925 36.0153L20.1725 35.9087L20.1708 35.9053Z" fill="white"/>
</svg>
